{"glyphs":{"0":{"ha":611,"x_min":36,"x_max":575,"o":"m 224 493 q 242 236 224 304 q 306 167 260 167 q 368 235 350 167 q 386 493 386 302 q 368 755 386 687 q 306 823 350 823 q 242 754 260 823 q 224 493 224 684 m 575 494 q 506 118 575 248 q 306 -12 436 -12 q 105 118 175 -12 q 36 494 36 248 q 105 873 36 743 q 306 1003 174 1003 q 506 873 437 1003 q 575 494 575 743 z "},"1":{"ha":611,"x_min":134,"x_max":418,"o":"m 228 0 l 228 827 l 134 827 l 134 990 l 418 990 l 418 0 l 228 0 z "},"2":{"ha":611,"x_min":43,"x_max":557,"o":"m 43 0 l 286 473 q 355 634 331 560 q 379 755 379 708 q 360 827 379 802 q 307 852 342 852 q 238 812 257 852 q 220 653 220 772 l 58 653 q 57 668 58 660 q 57 693 57 677 q 123 924 57 845 q 318 1003 190 1003 q 492 937 428 1003 q 557 758 557 871 q 524 589 557 682 q 395 323 490 496 l 310 171 l 532 171 l 532 0 l 43 0 z "},"3":{"ha":611,"x_min":32,"x_max":572,"o":"m 33 283 l 199 283 l 199 272 q 219 184 199 214 q 277 154 239 154 q 341 191 319 154 q 364 297 364 229 q 335 409 364 376 q 239 443 306 443 q 227 442 235 443 q 215 441 220 441 l 215 604 l 228 604 q 343 633 308 604 q 378 729 378 663 q 357 809 378 780 q 301 838 337 838 q 244 809 264 838 q 225 725 225 781 l 225 714 l 65 714 l 65 737 q 128 935 65 867 q 311 1003 191 1003 q 482 933 422 1003 q 542 733 542 863 q 504 590 542 644 q 395 528 466 537 l 395 515 q 528 440 484 498 q 572 283 572 382 q 495 66 572 145 q 285 -14 418 -14 q 98 57 164 -14 q 32 257 32 127 q 33 270 32 261 q 33 283 33 278 z "},"4":{"ha":611,"x_min":40,"x_max":571,"o":"m 167 395 l 332 395 l 332 675 q 333 713 332 688 q 339 807 334 739 q 305 701 322 749 q 272 618 288 652 l 167 395 m 325 0 l 325 245 l 40 245 l 40 395 l 300 990 l 490 990 l 490 395 l 571 395 l 571 245 l 490 245 l 490 0 l 325 0 z "},"5":{"ha":611,"x_min":39,"x_max":555,"o":"m 39 26 l 64 205 q 137 173 100 184 q 207 161 174 161 q 321 203 281 161 q 361 321 361 244 q 299 457 361 410 q 121 504 237 504 q 81 502 108 504 q 71 501 75 502 l 139 990 l 525 990 l 525 822 l 277 822 l 252 642 l 258 642 q 477 561 398 642 q 555 339 555 481 q 468 82 555 177 q 231 -12 381 -12 q 127 -3 174 -12 q 39 26 81 7 z "},"6":{"ha":611,"x_min":36,"x_max":578,"o":"m 309 161 q 365 200 346 161 q 385 314 385 239 q 368 432 385 394 q 314 469 351 469 q 256 429 274 469 q 237 302 237 389 q 255 197 237 232 q 309 161 273 161 m 256 587 q 320 623 290 612 q 379 635 350 635 q 525 559 472 635 q 578 350 578 484 q 507 82 578 178 q 310 -14 436 -14 q 107 76 178 -14 q 36 330 36 165 q 164 757 36 492 l 175 779 l 277 990 l 467 990 l 309 679 q 280 627 294 650 q 256 587 267 604 z "},"7":{"ha":611,"x_min":61,"x_max":616,"o":"m 61 0 l 374 827 l 75 827 l 75 990 l 616 990 l 257 0 l 61 0 z "},"8":{"ha":611,"x_min":40,"x_max":571,"o":"m 193 538 l 193 546 q 100 615 132 561 q 68 755 68 669 q 130 939 68 874 q 306 1003 191 1003 q 481 939 420 1003 q 543 755 543 874 q 511 615 543 669 q 418 546 478 561 l 418 538 q 531 450 492 517 q 571 278 571 383 q 500 65 571 142 q 306 -12 430 -12 q 111 65 181 -12 q 40 278 40 142 q 79 450 40 383 q 193 538 119 517 m 304 848 q 255 824 271 848 q 239 747 239 800 q 254 659 239 685 q 306 632 270 632 q 356 657 340 632 q 372 741 372 683 q 356 822 372 796 q 304 848 339 848 m 306 441 q 245 408 265 441 q 225 306 225 374 q 245 197 225 232 q 306 161 264 161 q 366 196 347 161 q 386 301 386 230 q 366 407 386 372 q 306 441 347 441 z "},"9":{"ha":611,"x_min":33,"x_max":572,"o":"m 298 828 q 243 790 261 828 q 225 673 225 752 q 243 556 225 595 q 298 518 261 518 q 354 556 336 518 q 372 673 372 593 q 354 790 372 751 q 298 828 336 828 m 358 401 q 295 363 326 376 q 232 351 264 351 q 86 430 139 351 q 33 646 33 508 q 104 911 33 819 q 307 1003 174 1003 q 503 912 433 1003 q 572 657 572 821 q 452 230 572 494 l 443 211 l 347 0 l 155 0 l 309 310 q 311 316 309 311 q 358 401 332 360 z "},"Ď":{"ha":833,"x_min":69,"x_max":764,"o":"m 69 -245 l 69 979 l 764 979 l 764 -245 l 69 -245 m 147 -168 l 686 -168 l 686 901 l 147 901 l 147 -168 z "}," ":{"ha":306,"x_min":0,"x_max":0,"o":""},"!":{"ha":382,"x_min":72,"x_max":311,"o":"m 98 290 l 98 990 l 285 990 l 285 290 l 98 290 m 311 107 q 277 22 311 56 q 192 -12 243 -12 q 106 22 141 -12 q 72 107 72 56 q 107 192 72 158 q 192 227 142 227 q 277 192 242 227 q 311 107 311 158 z "},"\"":{"ha":436,"x_min":58,"x_max":379,"o":"m 268 974 l 379 974 l 379 596 l 268 596 l 268 974 m 58 974 l 170 974 l 170 596 l 58 596 l 58 974 z "},"#":{"ha":1068,"x_min":47,"x_max":1021,"o":"m 481 578 l 419 406 l 593 406 l 654 578 l 481 578 m 498 990 l 628 990 l 524 694 l 693 694 l 799 990 l 928 990 l 823 694 l 1021 694 l 981 578 l 782 578 l 721 407 l 930 407 l 889 290 l 681 290 l 575 -4 l 446 -4 l 551 290 l 380 290 l 273 -4 l 144 -4 l 250 290 l 47 290 l 89 407 l 290 407 l 351 578 l 138 578 l 179 694 l 393 694 l 498 990 z "},"$":{"ha":611,"x_min":25,"x_max":575,"o":"m 25 117 l 104 254 q 189 187 145 210 q 275 164 233 164 q 366 197 331 164 q 400 281 400 229 q 273 424 400 356 q 224 452 241 441 q 75 574 120 511 q 31 722 31 637 q 75 881 31 816 q 201 974 119 945 l 201 1099 l 260 1099 l 260 985 q 264 985 261 985 q 300 987 287 987 q 313 987 306 987 q 330 985 321 986 l 330 1099 l 389 1099 l 389 978 q 479 943 440 966 q 547 884 518 920 l 454 750 q 377 803 416 785 q 300 821 338 821 q 232 795 259 821 q 205 732 205 770 q 336 599 205 665 q 353 590 347 593 q 529 461 483 525 q 575 294 575 397 q 525 117 575 192 q 389 17 475 42 l 389 -123 l 330 -123 l 330 7 q 308 3 320 4 q 283 1 296 1 q 269 2 273 1 q 260 3 264 2 l 260 -123 l 201 -123 l 201 12 q 110 43 154 17 q 25 117 66 68 z "},"%":{"ha":1137,"x_min":50,"x_max":1078,"o":"m 261 -12 l 753 1003 l 863 1003 l 374 -12 l 261 -12 m 822 283 q 835 146 822 181 q 880 111 848 111 q 927 148 913 111 q 940 283 940 185 q 927 422 940 385 q 880 458 913 458 q 835 422 848 458 q 822 283 822 385 m 1078 285 q 1027 64 1078 140 q 880 -12 977 -12 q 734 64 785 -12 q 684 285 684 140 q 734 507 684 430 q 880 583 785 583 q 1027 507 977 583 q 1078 285 1078 431 m 187 707 q 201 570 187 606 q 248 534 214 534 q 293 571 279 534 q 306 707 306 607 q 293 845 306 810 q 248 880 280 880 q 201 843 214 880 q 187 707 187 806 m 444 704 q 394 483 444 559 q 248 407 343 407 q 101 483 152 407 q 50 704 50 559 q 101 926 50 849 q 248 1003 151 1003 q 394 926 343 1003 q 444 704 444 849 z "},"&":{"ha":757,"x_min":45,"x_max":739,"o":"m 416 200 l 293 396 q 238 347 254 372 q 221 290 221 322 q 252 205 221 239 q 328 171 283 171 q 369 178 347 171 q 416 200 391 185 m 332 637 l 353 656 q 392 705 378 677 q 406 758 406 732 q 390 807 406 788 q 351 825 375 825 q 302 805 321 825 q 283 753 283 785 q 289 718 283 736 q 302 685 294 699 l 332 637 m 498 69 q 414 12 459 31 q 315 -7 368 -7 q 122 78 200 -7 q 45 285 45 162 q 84 427 45 360 q 200 546 123 493 q 140 664 157 617 q 123 754 123 711 q 187 912 123 853 q 358 971 251 971 q 513 914 453 971 q 574 766 574 857 q 533 630 574 696 q 415 509 492 564 l 541 310 l 639 415 l 739 275 l 627 174 l 737 0 l 542 0 l 498 69 z "},"'":{"ha":227,"x_min":58,"x_max":170,"o":"m 58 974 l 170 974 l 170 596 l 58 596 l 58 974 z "},"(":{"ha":385,"x_min":54,"x_max":361,"o":"m 361 -260 l 210 -301 q 93 34 131 -134 q 54 376 54 201 q 93 725 54 555 q 210 1055 132 895 l 361 1014 q 255 709 290 867 q 220 376 220 551 q 255 51 220 209 q 361 -260 290 -106 z "},")":{"ha":385,"x_min":22,"x_max":329,"o":"m 22 -260 q 129 49 94 -109 q 164 376 164 208 q 129 710 164 553 q 22 1014 94 867 l 175 1055 q 291 725 252 895 q 329 376 329 556 q 291 33 329 200 q 175 -301 253 -135 l 22 -260 z "},"*":{"ha":611,"x_min":75,"x_max":536,"o":"m 121 591 l 75 669 l 229 750 l 75 831 l 119 908 l 268 817 l 261 990 l 350 990 l 343 817 l 490 908 l 536 831 l 380 750 l 534 669 l 490 591 l 343 685 l 350 510 l 261 510 l 268 685 l 121 591 z "},"+":{"ha":1157,"x_min":172,"x_max":985,"o":"m 521 828 l 636 828 l 636 471 l 985 471 l 985 358 l 636 358 l 636 0 l 521 0 l 521 358 l 172 358 l 172 471 l 521 471 l 521 828 z "},",":{"ha":306,"x_min":0,"x_max":306,"o":"m 0 -191 l 110 221 l 306 221 l 138 -191 l 0 -191 z "},"-":{"ha":453,"x_min":52,"x_max":401,"o":"m 52 225 l 52 440 l 401 440 l 401 225 l 52 225 z "},".":{"ha":306,"x_min":33,"x_max":272,"o":"m 272 113 q 238 26 272 61 q 153 -8 203 -8 q 68 26 102 -8 q 33 113 33 61 q 68 198 33 163 q 153 232 102 232 q 237 198 203 232 q 272 113 272 163 z "},"/":{"ha":425,"x_min":0,"x_max":425,"o":"m 306 1003 l 425 1003 l 119 -129 l 0 -129 l 306 1003 z "},":":{"ha":382,"x_min":72,"x_max":311,"o":"m 311 511 q 277 425 311 460 q 192 390 242 390 q 106 425 141 390 q 72 511 72 460 q 107 596 72 562 q 192 631 142 631 q 277 596 242 631 q 311 511 311 562 m 311 113 q 277 26 311 61 q 192 -8 242 -8 q 106 26 141 -8 q 72 113 72 61 q 107 198 72 163 q 192 232 142 232 q 277 198 242 232 q 311 113 311 163 z "},";":{"ha":382,"x_min":-20,"x_max":311,"o":"m -20 -191 l 92 221 l 288 221 l 119 -191 l -20 -191 m 311 511 q 277 425 311 460 q 192 390 242 390 q 106 425 141 390 q 72 511 72 460 q 107 596 72 562 q 192 631 142 631 q 277 596 242 631 q 311 511 311 562 z "},"<":{"ha":1157,"x_min":179,"x_max":978,"o":"m 978 798 l 978 672 l 345 414 l 978 155 l 978 32 l 179 359 l 179 468 l 978 798 z "},"=":{"ha":1157,"x_min":172,"x_max":985,"o":"m 172 330 l 985 330 l 985 218 l 172 218 l 172 330 m 172 611 l 985 611 l 985 497 l 172 497 l 172 611 z "},">":{"ha":1157,"x_min":179,"x_max":978,"o":"m 179 798 l 978 468 l 978 359 l 179 32 l 179 155 l 812 414 l 179 672 l 179 798 z "},"?":{"ha":599,"x_min":31,"x_max":545,"o":"m 196 313 l 196 543 q 306 583 272 547 q 340 699 340 620 q 324 793 340 763 q 273 823 308 823 q 229 798 244 823 q 214 721 214 772 l 214 714 l 31 714 l 31 737 q 95 936 31 868 q 283 1003 159 1003 q 477 925 410 1003 q 545 699 545 847 q 505 524 545 587 q 382 444 465 462 l 382 313 l 196 313 m 408 107 q 374 22 408 56 q 289 -12 340 -12 q 204 22 238 -12 q 170 107 170 56 q 204 192 170 158 q 289 227 239 227 q 374 192 339 227 q 408 107 408 158 z "},"@":{"ha":1389,"x_min":66,"x_max":1322,"o":"m 796 192 q 709 105 759 133 q 590 78 660 78 q 432 137 487 78 q 378 306 378 195 q 471 574 378 464 q 697 684 565 684 q 798 660 758 684 q 865 587 839 637 l 903 660 l 1007 660 l 907 262 q 905 254 906 259 q 901 229 901 235 q 919 188 901 203 q 966 172 937 172 q 1039 193 1001 172 q 1111 250 1078 214 q 1185 371 1160 302 q 1211 517 1211 439 q 1084 795 1211 688 q 753 903 958 903 q 579 882 659 903 q 433 818 499 861 q 244 621 311 741 q 178 353 178 500 q 320 14 178 141 q 699 -113 462 -113 q 918 -79 811 -113 q 1116 17 1025 -46 l 1161 -50 q 945 -165 1060 -127 q 704 -204 830 -204 q 466 -172 574 -204 q 275 -75 358 -139 q 118 112 170 5 q 66 354 66 218 q 102 567 66 466 q 205 751 137 667 q 445 936 305 873 q 757 999 585 999 q 970 968 869 999 q 1143 882 1072 937 q 1278 722 1233 812 q 1322 518 1322 631 q 1278 313 1322 408 q 1153 153 1234 218 q 1051 96 1106 115 q 937 77 996 77 q 831 104 865 77 q 796 189 796 132 l 796 192 m 836 479 q 794 568 827 536 q 711 599 762 599 q 564 512 625 599 q 503 301 503 425 q 533 199 503 235 q 621 163 564 163 q 731 208 682 163 q 799 325 781 253 l 836 479 z "},"A":{"ha":646,"x_min":-5,"x_max":652,"o":"m 258 328 l 390 328 q 353 545 370 431 q 325 785 337 659 q 293 559 310 673 q 258 328 277 445 m -5 0 l 225 990 l 432 990 l 652 0 l 454 0 l 421 174 l 222 174 l 192 0 l -5 0 z "},"B":{"ha":677,"x_min":78,"x_max":640,"o":"m 269 579 l 290 579 q 402 609 366 579 q 437 701 437 639 q 401 798 437 767 q 289 829 365 829 l 269 829 l 269 579 m 269 176 q 283 176 274 176 q 297 175 292 175 q 407 205 373 175 q 441 302 441 236 q 407 404 441 374 q 293 435 372 435 l 269 435 l 269 176 m 78 0 l 78 990 l 271 990 q 545 929 465 990 q 625 726 625 869 q 595 593 625 646 q 500 510 564 541 q 606 429 572 484 q 640 283 640 374 q 618 162 640 216 q 553 69 595 107 q 450 16 510 32 q 261 0 390 0 l 78 0 z "},"C":{"ha":632,"x_min":46,"x_max":587,"o":"m 587 11 q 530 -6 559 -1 q 472 -12 501 -12 q 164 125 283 -12 q 46 486 46 263 q 162 861 46 718 q 464 1003 277 1003 q 529 997 498 1003 q 587 979 559 991 l 587 794 q 532 811 559 806 q 479 817 505 817 q 319 729 380 817 q 257 497 257 642 q 320 272 257 358 q 484 186 384 186 q 535 192 509 186 q 587 210 561 198 l 587 11 z "},"D":{"ha":747,"x_min":78,"x_max":703,"o":"m 273 183 l 289 183 q 450 262 394 183 q 505 492 505 341 q 451 731 505 653 q 286 810 397 810 l 273 810 l 273 183 m 78 0 l 78 990 l 248 990 q 590 867 477 990 q 703 494 703 745 q 661 242 703 344 q 532 74 620 140 q 413 17 479 34 q 227 0 347 0 l 78 0 z "},"E":{"ha":550,"x_min":78,"x_max":494,"o":"m 78 0 l 78 990 l 494 990 l 494 807 l 269 807 l 269 607 l 473 607 l 473 425 l 269 425 l 269 193 l 494 193 l 494 0 l 78 0 z "},"F":{"ha":542,"x_min":78,"x_max":505,"o":"m 78 0 l 78 990 l 505 990 l 505 807 l 269 807 l 269 602 l 485 602 l 485 419 l 269 419 l 269 0 l 78 0 z "},"G":{"ha":772,"x_min":45,"x_max":728,"o":"m 358 559 l 726 559 q 727 537 726 552 q 728 514 728 522 q 636 127 728 266 q 385 -12 545 -12 q 136 124 228 -12 q 45 494 45 260 q 140 867 45 731 q 399 1003 235 1003 q 588 938 510 1003 q 701 749 665 873 l 524 667 q 480 777 512 741 q 395 814 448 814 q 278 737 315 814 q 241 494 241 660 q 280 255 241 336 q 395 174 319 174 q 497 229 460 174 q 534 385 534 284 l 358 385 l 358 559 z "},"H":{"ha":768,"x_min":78,"x_max":692,"o":"m 78 0 l 78 990 l 273 990 l 273 624 l 494 624 l 494 990 l 692 990 l 692 0 l 494 0 l 494 431 l 273 431 l 273 0 l 78 0 z "},"I":{"ha":375,"x_min":86,"x_max":288,"o":"m 86 0 l 86 990 l 288 990 l 288 0 l 86 0 z "},"J":{"ha":437,"x_min":4,"x_max":366,"o":"m 4 9 l 4 189 q 46 171 27 177 q 79 165 64 165 q 147 202 129 165 q 165 389 165 238 l 165 990 l 366 990 l 366 300 q 355 152 366 199 q 318 72 344 106 q 236 8 285 30 q 125 -14 187 -14 q 59 -8 90 -14 q 4 9 28 -2 z "},"K":{"ha":661,"x_min":78,"x_max":675,"o":"m 78 1 l 78 990 l 269 990 l 269 558 l 463 990 l 668 990 l 464 539 l 675 1 l 464 1 l 269 484 l 269 1 l 78 1 z "},"L":{"ha":498,"x_min":78,"x_max":498,"o":"m 78 0 l 78 990 l 273 990 l 273 193 l 498 193 l 498 0 l 78 0 z "},"M":{"ha":926,"x_min":29,"x_max":897,"o":"m 29 0 l 126 990 l 380 990 l 432 612 q 451 447 444 526 q 464 294 459 368 q 485 500 476 425 q 498 612 493 576 l 562 990 l 814 990 l 897 0 l 697 0 l 676 460 q 674 509 675 476 q 665 804 665 689 l 536 0 l 393 0 l 272 810 q 260 521 272 709 q 256 457 257 478 l 225 0 l 29 0 z "},"N":{"ha":770,"x_min":78,"x_max":692,"o":"m 78 0 l 78 990 l 278 990 l 478 457 q 503 378 487 431 q 539 253 519 325 q 516 446 524 358 q 509 610 509 534 l 509 990 l 692 990 l 692 0 l 509 0 l 292 554 q 263 655 286 566 q 246 719 252 696 q 256 589 253 661 q 260 416 260 517 l 260 0 l 78 0 z "},"O":{"ha":785,"x_min":45,"x_max":741,"o":"m 392 176 q 506 256 468 176 q 543 494 543 335 q 506 734 543 655 q 392 814 468 814 q 279 735 316 814 q 241 494 241 656 q 279 255 241 334 q 392 176 316 176 m 741 481 q 646 121 741 254 q 392 -12 551 -12 q 136 122 228 -12 q 45 494 45 256 q 137 868 45 732 q 392 1003 230 1003 q 648 865 555 1003 q 741 481 741 726 z "},"P":{"ha":632,"x_min":78,"x_max":606,"o":"m 269 561 q 280 560 273 561 q 290 559 287 559 q 386 596 353 559 q 419 700 419 632 q 388 804 419 770 q 290 838 357 838 q 280 837 287 838 q 269 836 273 836 l 269 561 m 78 0 l 78 990 l 283 990 q 526 919 447 990 q 606 703 606 848 q 529 487 606 564 q 314 410 452 410 q 287 410 296 410 q 270 411 278 410 l 269 0 l 78 0 z "},"Q":{"ha":785,"x_min":45,"x_max":749,"o":"m 424 379 l 517 277 q 537 370 530 318 q 543 493 543 422 q 505 734 543 653 q 392 815 467 815 q 277 732 315 815 q 240 476 240 649 q 278 250 240 328 q 390 172 317 172 q 404 173 396 172 q 420 175 411 174 l 317 290 l 424 379 m 749 21 l 642 -72 l 549 31 q 479 0 517 10 q 392 -9 441 -9 q 136 127 227 -9 q 45 510 45 263 q 138 871 45 739 q 392 1003 231 1003 q 649 867 558 1003 q 741 482 741 731 q 718 274 741 360 q 647 132 694 187 l 749 21 z "},"R":{"ha":637,"x_min":78,"x_max":639,"o":"m 269 561 q 280 560 273 561 q 292 559 288 559 q 389 595 356 559 q 421 701 421 631 q 391 805 421 772 q 296 838 361 838 q 280 837 286 838 q 270 836 275 837 l 269 561 m 78 0 l 78 990 l 283 990 q 529 924 453 990 q 606 711 606 857 q 567 542 606 606 q 449 452 528 477 l 639 0 l 431 0 l 269 410 l 269 0 l 78 0 z "},"S":{"ha":533,"x_min":32,"x_max":503,"o":"m 47 35 l 47 240 q 121 191 85 208 q 193 175 157 175 q 272 201 243 175 q 301 273 301 228 q 223 395 301 330 q 191 424 201 414 q 66 570 100 505 q 32 717 32 635 q 104 924 32 845 q 293 1003 176 1003 q 375 991 334 1003 q 460 954 415 979 l 460 779 q 379 814 408 804 q 328 823 350 823 q 258 797 285 823 q 231 726 231 770 q 251 655 231 688 q 346 558 271 623 q 474 416 446 473 q 503 279 503 359 q 426 66 503 144 q 218 -12 350 -12 q 126 -1 168 -12 q 47 35 83 11 z "},"T":{"ha":541,"x_min":20,"x_max":521,"o":"m 171 0 l 171 807 l 20 807 l 20 990 l 521 990 l 521 807 l 370 807 l 370 0 l 171 0 z "},"U":{"ha":762,"x_min":72,"x_max":690,"o":"m 690 990 l 690 368 q 684 207 690 254 q 661 127 677 159 q 557 22 625 56 q 382 -12 489 -12 q 206 22 275 -12 q 102 127 137 56 q 79 208 85 159 q 72 368 72 256 l 72 397 l 72 990 l 269 990 l 269 353 q 294 196 269 231 q 382 161 319 161 q 470 197 446 161 q 494 353 494 233 l 494 990 l 690 990 z "},"V":{"ha":675,"x_min":-26,"x_max":701,"o":"m 256 0 l -26 990 l 174 990 l 290 542 q 319 401 307 476 q 338 245 331 327 q 354 394 342 321 q 382 538 365 468 l 496 990 l 701 990 l 421 0 l 256 0 z "},"W":{"ha":1015,"x_min":1,"x_max":1015,"o":"m 1 990 l 201 990 l 272 543 q 290 408 282 483 q 302 241 297 333 l 432 990 l 596 990 l 725 241 q 730 376 725 307 q 747 515 736 445 l 821 990 l 1015 990 l 817 0 l 643 0 l 538 546 q 524 644 530 587 q 515 768 518 701 q 502 637 509 694 q 489 547 495 579 l 379 0 l 201 0 l 1 990 z "},"X":{"ha":586,"x_min":-36,"x_max":623,"o":"m 408 0 l 330 201 q 309 270 319 233 q 292 347 299 307 q 275 269 284 306 q 257 201 267 232 l 189 0 l -36 0 l 193 501 l -16 990 l 192 990 l 267 782 q 280 736 273 765 q 297 663 288 708 q 313 732 305 701 q 330 783 321 762 l 403 990 l 607 990 l 399 501 l 623 0 l 408 0 z "},"Y":{"ha":543,"x_min":-57,"x_max":599,"o":"m 172 0 l 172 465 l -57 990 l 151 990 l 216 811 q 250 715 235 763 q 278 618 264 667 q 304 720 290 673 q 334 806 319 768 l 406 990 l 599 990 l 368 465 l 368 0 l 172 0 z "},"Z":{"ha":595,"x_min":-11,"x_max":575,"o":"m -11 0 l 309 808 l 36 808 l 36 990 l 575 990 l 260 193 l 547 193 l 547 0 l -11 0 z "},"[":{"ha":385,"x_min":45,"x_max":359,"o":"m 45 -269 l 45 1022 l 359 1022 l 359 882 l 232 882 l 232 -129 l 359 -129 l 359 -269 l 45 -269 z "},"\\":{"ha":425,"x_min":0,"x_max":425,"o":"m 306 -129 l 0 1003 l 119 1003 l 425 -129 l 306 -129 z "},"]":{"ha":385,"x_min":24,"x_max":339,"o":"m 339 -269 l 24 -269 l 24 -129 l 153 -129 l 153 882 l 24 882 l 24 1022 l 339 1022 l 339 -269 z "},"^":{"ha":1389,"x_min":283,"x_max":1104,"o":"m 621 990 l 768 990 l 1104 610 l 964 610 l 694 879 l 424 610 l 283 610 l 621 990 z "},"_":{"ha":694,"x_min":0,"x_max":694,"o":"m 0 -211 l 694 -211 l 694 -328 l 0 -328 l 0 -211 z "},"`":{"ha":694,"x_min":155,"x_max":449,"o":"m 155 1007 l 322 1007 l 449 755 l 358 755 l 155 1007 z "},"a":{"ha":629,"x_min":41,"x_max":559,"o":"m 387 343 q 366 478 387 434 q 300 522 345 522 q 242 480 260 522 q 224 342 224 437 q 244 200 224 247 q 304 153 264 153 q 368 198 348 153 q 387 343 387 243 m 559 0 l 387 0 l 387 98 q 320 16 358 43 q 237 -12 283 -12 q 92 76 142 -12 q 41 332 41 164 q 93 583 41 494 q 239 672 145 672 q 319 646 283 672 q 387 564 355 619 l 387 665 l 559 665 l 559 0 z "},"b":{"ha":629,"x_min":69,"x_max":586,"o":"m 328 524 q 264 480 284 524 q 244 343 244 437 q 263 196 244 241 q 325 151 282 151 q 385 198 366 151 q 404 346 404 245 q 386 481 404 439 q 328 524 368 524 m 69 0 l 69 1051 l 245 1051 l 245 571 q 311 647 275 622 q 390 672 347 672 q 536 582 486 672 q 586 318 586 492 q 535 74 586 162 q 395 -14 484 -14 q 308 15 346 -14 q 245 97 271 43 l 245 0 l 69 0 z "},"c":{"ha":441,"x_min":36,"x_max":416,"o":"m 416 476 q 374 500 395 492 q 334 507 354 507 q 250 461 281 507 q 218 338 218 416 q 250 211 218 256 q 339 167 281 167 q 380 175 361 167 q 416 201 399 184 l 416 26 q 356 -3 388 7 q 290 -12 325 -12 q 105 81 174 -12 q 36 334 36 174 q 105 585 36 492 q 290 677 174 677 q 355 671 323 677 q 416 652 386 665 l 416 476 z "},"d":{"ha":629,"x_min":41,"x_max":559,"o":"m 382 343 q 362 481 382 439 q 300 524 343 524 q 242 481 260 524 q 224 342 224 438 q 244 199 224 246 q 304 151 264 151 q 364 195 346 151 q 382 343 382 239 m 559 0 l 382 0 l 382 97 q 318 14 355 41 q 233 -14 281 -14 q 92 76 142 -14 q 41 332 41 166 q 93 584 41 495 q 239 672 144 672 q 317 647 281 672 q 382 571 353 622 l 382 1051 l 559 1051 l 559 0 z "},"e":{"ha":595,"x_min":32,"x_max":568,"o":"m 407 389 q 381 497 405 462 q 309 532 357 532 q 236 495 261 532 q 211 389 211 458 l 407 389 m 211 283 l 211 278 q 237 163 211 203 q 313 123 264 123 q 366 142 344 123 q 401 200 388 161 l 559 200 q 470 44 538 100 q 302 -12 401 -12 q 105 81 178 -12 q 32 332 32 174 q 105 585 32 492 q 302 677 178 677 q 501 586 434 677 q 568 315 568 494 l 568 283 l 211 283 z "},"f":{"ha":359,"x_min":17,"x_max":347,"o":"m 347 1057 l 347 901 q 338 901 343 901 q 326 901 334 901 q 279 882 292 901 q 267 778 267 863 l 267 665 l 347 665 l 347 525 l 267 525 l 267 0 l 83 0 l 83 525 l 17 525 l 17 665 l 83 665 l 83 842 q 92 942 83 909 q 119 1000 100 975 q 184 1048 144 1031 q 277 1064 224 1064 q 307 1062 290 1064 q 347 1057 324 1061 z "},"g":{"ha":629,"x_min":41,"x_max":559,"o":"m 382 665 l 559 665 l 559 50 q 503 -235 559 -163 q 298 -307 446 -307 q 117 -247 182 -307 q 53 -77 53 -186 l 53 -66 l 208 -66 q 230 -139 208 -115 q 296 -163 252 -163 q 362 -138 343 -163 q 382 -50 382 -113 l 382 87 q 314 17 350 41 q 237 -7 277 -7 q 92 81 142 -7 q 41 334 41 168 q 93 584 41 496 q 239 672 144 672 q 319 645 283 672 q 382 564 355 618 l 382 665 m 382 343 q 363 482 382 440 q 300 524 344 524 q 242 481 260 524 q 224 342 224 438 q 244 199 224 246 q 304 151 264 151 q 364 195 346 151 q 382 343 382 239 z "},"h":{"ha":621,"x_min":65,"x_max":558,"o":"m 375 0 l 375 403 q 361 481 375 460 q 315 503 348 503 q 264 477 280 503 q 249 395 249 452 l 249 0 l 65 0 l 65 1051 l 249 1051 l 249 585 q 328 651 286 629 q 419 672 370 672 q 528 629 497 672 q 558 454 558 585 l 558 0 l 375 0 z "},"i":{"ha":328,"x_min":58,"x_max":269,"o":"m 58 843 q 89 919 58 888 q 164 950 119 950 q 238 919 208 950 q 269 843 269 888 q 239 769 269 800 q 164 739 208 739 q 89 769 119 739 q 58 843 58 798 m 72 0 l 72 665 l 256 665 l 256 0 l 72 0 z "},"j":{"ha":328,"x_min":58,"x_max":269,"o":"m 58 843 q 89 919 58 888 q 164 950 119 950 q 238 919 208 950 q 269 843 269 888 q 239 769 269 800 q 164 739 208 739 q 89 769 119 739 q 58 843 58 798 m 72 -268 l 72 665 l 256 665 l 256 -268 l 72 -268 z "},"k":{"ha":582,"x_min":68,"x_max":604,"o":"m 252 392 q 282 460 258 410 q 290 476 288 471 l 385 665 l 591 665 l 425 389 l 604 0 l 400 0 l 252 363 l 252 0 l 68 0 l 68 1051 l 252 1051 l 252 392 z "},"l":{"ha":328,"x_min":72,"x_max":256,"o":"m 72 0 l 72 1051 l 256 1051 l 256 0 l 72 0 z "},"m":{"ha":911,"x_min":66,"x_max":848,"o":"m 66 0 l 66 665 l 236 665 l 236 562 q 314 645 271 618 q 411 672 357 672 q 499 644 465 672 q 545 562 533 616 q 626 645 583 618 q 718 672 669 672 q 820 622 791 672 q 848 415 848 572 l 848 0 l 668 0 l 668 403 q 656 481 668 459 q 614 503 644 503 q 563 479 578 503 q 547 395 547 455 l 547 0 l 368 0 l 368 403 q 356 481 368 458 q 314 504 343 504 q 261 479 277 504 q 245 395 245 454 l 245 0 l 66 0 z "},"n":{"ha":621,"x_min":65,"x_max":558,"o":"m 375 0 l 375 403 q 361 481 375 460 q 315 503 348 503 q 264 477 280 503 q 249 395 249 452 l 249 0 l 65 0 l 65 665 l 236 665 l 236 562 q 317 645 272 618 q 419 672 362 672 q 528 628 497 672 q 558 454 558 584 l 558 0 l 375 0 z "},"o":{"ha":616,"x_min":32,"x_max":586,"o":"m 309 149 q 384 197 357 149 q 411 335 411 245 q 384 472 411 424 q 309 521 357 521 q 233 473 260 521 q 207 335 207 425 q 233 197 207 245 q 309 149 260 149 m 586 334 q 510 81 586 175 q 309 -12 435 -12 q 107 81 182 -12 q 32 334 32 174 q 107 585 32 492 q 309 677 182 677 q 511 584 435 677 q 586 334 586 491 z "},"p":{"ha":629,"x_min":69,"x_max":586,"o":"m 328 522 q 265 480 285 522 q 245 343 245 438 q 264 195 245 239 q 325 151 283 151 q 385 198 366 151 q 404 346 404 245 q 386 480 404 439 q 328 522 368 522 m 69 -268 l 69 665 l 241 665 l 241 564 q 310 646 273 619 q 390 672 347 672 q 535 583 484 672 q 586 329 586 494 q 536 75 586 165 q 395 -16 486 -16 q 309 13 347 -16 q 245 97 271 42 l 245 -268 l 69 -268 z "},"q":{"ha":629,"x_min":41,"x_max":559,"o":"m 382 343 q 362 480 382 438 q 300 522 343 522 q 242 479 260 522 q 224 340 224 437 q 244 198 224 245 q 304 151 264 151 q 364 195 346 151 q 382 343 382 239 m 559 -268 l 382 -268 l 382 97 q 318 13 355 41 q 233 -16 281 -16 q 92 75 142 -16 q 41 329 41 165 q 93 583 41 494 q 239 672 144 672 q 319 646 283 672 q 387 564 355 619 l 387 665 l 559 665 l 559 -268 z "},"r":{"ha":399,"x_min":68,"x_max":389,"o":"m 68 0 l 68 665 l 239 665 l 239 547 q 298 645 261 612 q 389 677 336 677 l 389 503 l 376 503 q 278 468 304 503 q 252 313 252 434 l 252 0 l 68 0 z "},"s":{"ha":465,"x_min":18,"x_max":432,"o":"m 18 57 l 94 192 q 153 159 128 170 q 199 149 178 149 q 234 162 220 149 q 248 196 248 176 q 180 273 248 231 q 153 290 162 284 q 61 376 87 334 q 35 475 35 418 q 93 623 35 568 q 250 677 151 677 q 345 664 300 677 q 432 621 390 650 l 354 489 q 305 522 328 511 q 262 533 282 533 q 226 521 240 533 q 212 489 212 509 q 275 421 212 460 q 306 401 295 409 q 404 309 376 353 q 432 205 432 265 q 368 48 432 109 q 201 -12 304 -12 q 106 5 151 -12 q 18 57 60 22 z "},"t":{"ha":357,"x_min":14,"x_max":342,"o":"m 86 0 l 86 522 l 14 522 l 14 665 l 86 665 l 86 857 l 269 857 l 269 665 l 342 665 l 342 522 l 269 522 l 269 0 l 86 0 z "},"u":{"ha":612,"x_min":62,"x_max":550,"o":"m 550 665 l 550 321 q 497 55 550 121 q 307 -12 445 -12 q 116 54 169 -12 q 62 321 62 121 l 62 665 l 241 665 l 241 237 q 256 167 241 185 q 306 149 270 149 q 356 168 342 149 q 371 237 371 186 l 371 665 l 550 665 z "},"v":{"ha":524,"x_min":1,"x_max":522,"o":"m 172 0 l 1 665 l 179 665 l 236 366 q 249 284 242 334 q 261 170 255 235 q 274 282 267 233 q 286 366 280 331 l 345 665 l 522 665 l 351 0 l 172 0 z "},"w":{"ha":804,"x_min":-3,"x_max":807,"o":"m 473 665 l 528 380 q 538 300 532 351 q 551 184 545 249 q 566 299 559 245 q 578 382 573 353 l 629 665 l 807 665 l 632 0 l 473 0 l 425 276 q 415 353 422 294 q 401 498 409 412 l 398 466 q 379 276 382 293 l 330 0 l 172 0 l -3 665 l 175 665 l 225 382 q 242 257 227 369 q 252 184 248 211 q 263 291 256 241 q 277 379 269 342 l 329 665 l 473 665 z "},"x":{"ha":514,"x_min":-8,"x_max":522,"o":"m -8 0 l 161 357 l 3 665 l 179 665 l 235 554 q 251 514 245 532 q 258 478 256 496 q 267 516 261 496 q 283 555 273 535 l 335 665 l 517 665 l 349 359 l 522 0 l 339 0 l 279 151 q 268 192 273 170 q 258 241 262 214 q 249 193 254 216 q 235 153 243 171 l 170 0 l -8 0 z "},"y":{"ha":514,"x_min":1,"x_max":521,"o":"m 92 -268 l 174 0 l 1 665 l 182 665 l 246 370 q 255 311 252 342 q 260 246 259 279 q 272 343 269 319 q 279 382 276 368 l 340 665 l 521 665 l 271 -268 l 92 -268 z "},"z":{"ha":457,"x_min":12,"x_max":441,"o":"m 12 0 l 204 517 l 28 517 l 28 665 l 441 665 l 253 160 l 428 160 l 428 0 l 12 0 z "},"{":{"ha":694,"x_min":110,"x_max":593,"o":"m 593 1002 l 593 880 q 576 881 587 880 q 561 882 566 882 q 461 853 487 882 q 435 736 435 825 l 435 572 q 405 423 435 467 q 297 359 375 378 q 405 297 374 341 q 435 147 435 252 l 435 -16 q 461 -134 435 -105 q 562 -163 488 -163 q 577 -162 567 -163 q 593 -161 587 -161 l 593 -281 l 550 -281 q 438 -273 481 -281 q 366 -248 395 -264 q 311 -182 327 -224 q 296 -45 296 -140 l 296 123 q 260 261 296 221 q 139 301 224 301 q 124 300 134 301 q 110 300 115 300 l 110 421 q 124 420 115 421 q 139 419 134 419 q 260 459 224 419 q 296 596 296 499 l 296 764 q 311 904 296 862 q 366 968 327 945 q 439 994 395 986 q 562 1002 484 1002 l 593 1002 z "},"|":{"ha":694,"x_min":288,"x_max":408,"o":"m 288 1061 l 408 1061 l 408 -328 l 288 -328 l 288 1061 z "},"}":{"ha":694,"x_min":103,"x_max":585,"o":"m 103 1002 l 134 1002 q 255 994 212 1002 q 329 968 299 986 q 383 903 368 945 q 399 764 399 861 l 399 596 q 434 459 399 498 q 555 419 469 419 q 570 420 559 419 q 585 421 580 421 l 585 300 q 570 300 580 300 q 555 301 560 301 q 434 261 470 301 q 399 123 399 221 l 399 -45 q 383 -183 399 -142 q 329 -248 368 -224 q 256 -273 300 -265 q 134 -281 212 -281 l 103 -281 l 103 -161 q 119 -162 109 -161 q 134 -163 129 -163 q 234 -134 208 -163 q 260 -16 260 -106 l 260 147 q 290 296 260 251 q 399 359 321 340 q 290 423 321 378 q 260 572 260 467 l 260 736 q 234 853 260 825 q 135 882 208 882 q 119 881 130 882 q 103 880 109 880 l 103 1002 z "},"~":{"ha":1157,"x_min":121,"x_max":1038,"o":"m 1038 532 l 1038 407 q 904 335 968 359 q 779 311 840 311 q 716 317 749 311 q 650 335 684 323 q 598 353 633 340 q 382 403 454 403 q 264 377 326 403 q 121 294 201 351 l 121 421 q 258 494 193 470 q 383 518 323 518 q 468 510 425 518 q 583 477 511 502 q 611 467 591 475 q 781 428 722 428 q 901 453 838 428 q 1038 532 963 478 z "},"Ä":{"ha":646,"x_min":-5,"x_max":652,"o":"m 258 328 l 390 328 q 353 545 370 431 q 325 785 337 659 q 293 559 310 673 q 258 328 277 445 m -5 0 l 225 990 l 432 990 l 652 0 l 454 0 l 421 174 l 222 174 l 192 0 l -5 0 m 137 1204 q 161 1260 137 1236 q 218 1284 186 1284 q 275 1260 251 1284 q 300 1204 300 1236 q 276 1146 300 1170 q 218 1122 252 1122 q 161 1146 184 1122 q 137 1204 137 1171 m 359 1204 q 384 1260 359 1236 q 440 1284 408 1284 q 498 1260 473 1284 q 522 1204 522 1236 q 498 1146 522 1170 q 440 1122 475 1122 q 383 1146 407 1122 q 359 1204 359 1171 z "},"Å":{"ha":646,"x_min":-5,"x_max":652,"o":"m 260 1186 q 280 1138 260 1158 q 329 1118 301 1118 q 377 1138 357 1118 q 397 1186 397 1158 q 377 1235 397 1215 q 329 1255 357 1255 q 281 1235 301 1255 q 260 1186 261 1215 m 178 1186 q 222 1293 178 1249 q 329 1337 267 1337 q 436 1294 392 1337 q 479 1186 479 1250 q 436 1080 479 1124 q 329 1036 392 1036 q 222 1080 267 1036 q 178 1186 178 1124 m -5 0 l 225 990 l 432 990 l 652 0 l 454 0 l 421 174 l 222 174 l 192 0 l -5 0 m 258 328 l 390 328 q 353 545 370 431 q 325 785 337 659 q 293 559 310 673 q 258 328 277 445 z "},"Ç":{"ha":632,"x_min":46,"x_max":587,"o":"m 587 11 q 530 -6 559 -1 q 472 -12 501 -12 q 164 125 283 -12 q 46 486 46 263 q 162 861 46 718 q 464 1003 277 1003 q 529 997 498 1003 q 587 979 559 991 l 587 794 q 532 811 559 806 q 479 817 505 817 q 319 729 380 817 q 257 497 257 642 q 320 272 257 358 q 484 186 384 186 q 535 192 509 186 q 587 210 561 198 l 587 11 m 261 -297 l 261 -210 q 341 -231 304 -224 q 404 -239 378 -239 q 448 -226 433 -239 q 463 -189 463 -214 q 445 -153 463 -164 q 389 -142 427 -142 q 372 -142 378 -142 q 360 -143 366 -142 l 360 0 l 425 0 l 425 -61 l 433 -61 q 534 -94 500 -61 q 568 -191 568 -126 q 530 -292 568 -258 q 414 -326 491 -326 q 346 -319 385 -326 q 261 -297 307 -311 z "},"É":{"ha":550,"x_min":78,"x_max":494,"o":"m 78 0 l 78 990 l 494 990 l 494 807 l 269 807 l 269 607 l 473 607 l 473 425 l 269 425 l 269 193 l 494 193 l 494 0 l 78 0 m 475 1332 l 273 1080 l 182 1080 l 309 1332 l 475 1332 z "},"Ñ":{"ha":770,"x_min":78,"x_max":692,"o":"m 78 0 l 78 990 l 278 990 l 478 457 q 503 378 487 431 q 539 253 519 325 q 516 446 524 358 q 509 610 509 534 l 509 990 l 692 990 l 692 0 l 509 0 l 292 554 q 263 655 286 566 q 246 719 252 696 q 256 589 253 661 q 260 416 260 517 l 260 0 l 78 0 m 572 1299 q 531 1173 560 1212 q 452 1133 503 1133 q 433 1135 443 1133 q 411 1140 422 1137 l 359 1158 q 340 1163 350 1162 q 322 1165 330 1165 q 291 1153 303 1165 q 272 1112 279 1141 l 208 1112 q 251 1233 222 1194 q 326 1272 279 1272 q 350 1270 337 1272 q 376 1262 362 1267 l 427 1246 q 442 1242 435 1243 q 456 1240 450 1240 q 489 1254 477 1240 q 509 1299 502 1267 l 572 1299 z "},"Ö":{"ha":785,"x_min":45,"x_max":741,"o":"m 392 176 q 506 256 468 176 q 543 494 543 335 q 506 734 543 655 q 392 814 468 814 q 279 735 316 814 q 241 494 241 656 q 279 255 241 334 q 392 176 316 176 m 741 481 q 646 121 741 254 q 392 -12 551 -12 q 136 122 228 -12 q 45 494 45 256 q 137 868 45 732 q 392 1003 230 1003 q 648 865 555 1003 q 741 481 741 726 m 201 1204 q 226 1260 201 1236 q 282 1284 250 1284 q 340 1260 315 1284 q 364 1204 364 1236 q 340 1146 364 1170 q 282 1122 317 1122 q 225 1146 249 1122 q 201 1204 201 1171 m 424 1204 q 448 1260 424 1236 q 505 1284 472 1284 q 562 1260 538 1284 q 587 1204 587 1236 q 563 1146 587 1170 q 505 1122 539 1122 q 448 1146 471 1122 q 424 1204 424 1171 z "},"Ü":{"ha":762,"x_min":72,"x_max":690,"o":"m 690 990 l 690 368 q 684 207 690 254 q 661 127 677 159 q 557 22 625 56 q 382 -12 489 -12 q 206 22 275 -12 q 102 127 137 56 q 79 208 85 159 q 72 368 72 256 l 72 397 l 72 990 l 269 990 l 269 353 q 294 196 269 231 q 382 161 319 161 q 470 197 446 161 q 494 353 494 233 l 494 990 l 690 990 m 190 1204 q 214 1260 190 1236 q 271 1284 239 1284 q 328 1260 304 1284 q 353 1204 353 1236 q 329 1146 353 1170 q 271 1122 305 1122 q 214 1146 237 1122 q 190 1204 190 1171 m 412 1204 q 436 1260 412 1236 q 493 1284 460 1284 q 551 1260 526 1284 q 575 1204 575 1236 q 551 1146 575 1170 q 493 1122 528 1122 q 436 1146 460 1122 q 412 1204 412 1171 z "},"á":{"ha":629,"x_min":41,"x_max":559,"o":"m 387 343 q 366 478 387 434 q 300 522 345 522 q 242 480 260 522 q 224 342 224 437 q 244 200 224 247 q 304 153 264 153 q 368 198 348 153 q 387 343 387 243 m 559 0 l 387 0 l 387 98 q 320 16 358 43 q 237 -12 283 -12 q 92 76 142 -12 q 41 332 41 164 q 93 583 41 494 q 239 672 145 672 q 319 646 283 672 q 387 564 355 619 l 387 665 l 559 665 l 559 0 m 534 1007 l 331 755 l 240 755 l 367 1007 l 534 1007 z "},"à":{"ha":629,"x_min":41,"x_max":559,"o":"m 387 343 q 366 478 387 434 q 300 522 345 522 q 242 480 260 522 q 224 342 224 437 q 244 200 224 247 q 304 153 264 153 q 368 198 348 153 q 387 343 387 243 m 559 0 l 387 0 l 387 98 q 320 16 358 43 q 237 -12 283 -12 q 92 76 142 -12 q 41 332 41 164 q 93 583 41 494 q 239 672 145 672 q 319 646 283 672 q 387 564 355 619 l 387 665 l 559 665 l 559 0 m 150 1007 l 317 1007 l 444 755 l 353 755 l 150 1007 z "},"â":{"ha":629,"x_min":41,"x_max":559,"o":"m 387 343 q 366 478 387 434 q 300 522 345 522 q 242 480 260 522 q 224 342 224 437 q 244 200 224 247 q 304 153 264 153 q 368 198 348 153 q 387 343 387 243 m 559 0 l 387 0 l 387 98 q 320 16 358 43 q 237 -12 283 -12 q 92 76 142 -12 q 41 332 41 164 q 93 583 41 494 q 239 672 145 672 q 319 646 283 672 q 387 564 355 619 l 387 665 l 559 665 l 559 0 m 160 755 l 274 1007 l 410 1007 l 524 755 l 441 755 l 342 903 l 242 755 l 160 755 z "},"ä":{"ha":629,"x_min":41,"x_max":559,"o":"m 387 343 q 366 478 387 434 q 300 522 345 522 q 242 480 260 522 q 224 342 224 437 q 244 200 224 247 q 304 153 264 153 q 368 198 348 153 q 387 343 387 243 m 559 0 l 387 0 l 387 98 q 320 16 358 43 q 237 -12 283 -12 q 92 76 142 -12 q 41 332 41 164 q 93 583 41 494 q 239 672 145 672 q 319 646 283 672 q 387 564 355 619 l 387 665 l 559 665 l 559 0 m 150 879 q 174 936 150 911 q 231 960 199 960 q 288 936 264 960 q 313 879 313 911 q 289 821 313 845 q 231 798 265 798 q 174 822 197 798 q 150 879 150 846 m 372 879 q 396 936 372 911 q 453 960 420 960 q 511 936 486 960 q 535 879 535 911 q 511 821 535 845 q 453 798 488 798 q 396 822 420 798 q 372 879 372 846 z "},"ã":{"ha":629,"x_min":41,"x_max":559,"o":"m 387 343 q 366 478 387 434 q 300 522 345 522 q 242 480 260 522 q 224 342 224 437 q 244 200 224 247 q 304 153 264 153 q 368 198 348 153 q 387 343 387 243 m 559 0 l 387 0 l 387 98 q 320 16 358 43 q 237 -12 283 -12 q 92 76 142 -12 q 41 332 41 164 q 93 583 41 494 q 239 672 145 672 q 319 646 283 672 q 387 564 355 619 l 387 665 l 559 665 l 559 0 m 524 974 q 483 848 512 887 q 404 808 454 808 q 385 810 395 808 q 363 815 374 812 l 311 833 q 292 839 302 837 q 274 840 282 840 q 243 828 255 840 q 224 787 231 816 l 160 787 q 202 908 174 869 q 278 947 231 947 q 301 945 289 947 q 328 937 314 943 l 379 921 q 394 917 387 918 q 408 916 401 916 q 441 929 429 916 q 461 974 454 943 l 524 974 z "},"å":{"ha":629,"x_min":41,"x_max":559,"o":"m 265 854 q 286 806 265 826 q 335 786 307 786 q 382 806 362 786 q 403 854 403 827 q 383 903 403 882 q 335 924 363 924 q 287 904 307 924 q 265 854 267 884 m 183 854 q 228 962 183 918 q 335 1006 272 1006 q 441 962 397 1006 q 485 854 485 918 q 441 748 485 791 q 335 704 397 704 q 228 748 272 704 q 183 854 183 792 m 559 0 l 385 0 l 385 98 q 320 16 357 43 q 237 -12 283 -12 q 92 76 142 -12 q 41 332 41 164 q 93 583 41 494 q 239 672 145 672 q 319 645 283 672 q 385 564 355 618 l 385 665 l 559 665 l 559 0 m 385 343 q 364 479 385 436 q 300 522 344 522 q 242 480 260 522 q 224 342 224 437 q 244 200 224 247 q 304 153 264 153 q 366 197 347 153 q 385 343 385 241 z "},"ç":{"ha":441,"x_min":36,"x_max":416,"o":"m 416 476 q 374 500 395 492 q 334 507 354 507 q 250 461 281 507 q 218 338 218 416 q 250 211 218 256 q 339 167 281 167 q 380 175 361 167 q 416 201 399 184 l 416 26 q 356 -3 388 7 q 290 -12 325 -12 q 105 81 174 -12 q 36 334 36 174 q 105 585 36 492 q 290 677 174 677 q 355 671 323 677 q 416 652 386 665 l 416 476 m 109 -297 l 109 -210 q 190 -231 153 -224 q 252 -239 227 -239 q 296 -226 281 -239 q 311 -189 311 -214 q 293 -153 311 -164 q 237 -142 275 -142 q 220 -142 227 -142 q 208 -143 214 -142 l 208 0 l 273 0 l 273 -61 l 281 -61 q 382 -94 349 -61 q 416 -191 416 -126 q 378 -292 416 -258 q 262 -326 339 -326 q 194 -319 233 -326 q 109 -297 155 -311 z "},"é":{"ha":595,"x_min":32,"x_max":568,"o":"m 407 389 q 381 497 405 462 q 309 532 357 532 q 236 495 261 532 q 211 389 211 458 l 407 389 m 211 283 l 211 278 q 237 163 211 203 q 313 123 264 123 q 366 142 344 123 q 401 200 388 161 l 559 200 q 470 44 538 100 q 302 -12 401 -12 q 105 81 178 -12 q 32 332 32 174 q 105 585 32 492 q 302 677 178 677 q 501 586 434 677 q 568 315 568 494 l 568 283 l 211 283 m 493 1007 l 290 755 l 199 755 l 326 1007 l 493 1007 z "},"è":{"ha":595,"x_min":32,"x_max":568,"o":"m 407 389 q 381 497 405 462 q 309 532 357 532 q 236 495 261 532 q 211 389 211 458 l 407 389 m 211 283 l 211 278 q 237 163 211 203 q 313 123 264 123 q 366 142 344 123 q 401 200 388 161 l 559 200 q 470 44 538 100 q 302 -12 401 -12 q 105 81 178 -12 q 32 332 32 174 q 105 585 32 492 q 302 677 178 677 q 501 586 434 677 q 568 315 568 494 l 568 283 l 211 283 m 109 1007 l 276 1007 l 403 755 l 312 755 l 109 1007 z "},"ê":{"ha":595,"x_min":32,"x_max":568,"o":"m 407 389 q 381 497 405 462 q 309 532 357 532 q 236 495 261 532 q 211 389 211 458 l 407 389 m 211 283 l 211 278 q 237 163 211 203 q 313 123 264 123 q 366 142 344 123 q 401 200 388 161 l 559 200 q 470 44 538 100 q 302 -12 401 -12 q 105 81 178 -12 q 32 332 32 174 q 105 585 32 492 q 302 677 178 677 q 501 586 434 677 q 568 315 568 494 l 568 283 l 211 283 m 119 755 l 233 1007 l 369 1007 l 483 755 l 401 755 l 301 903 l 201 755 l 119 755 z "},"ë":{"ha":595,"x_min":32,"x_max":568,"o":"m 407 389 q 381 497 405 462 q 309 532 357 532 q 236 495 261 532 q 211 389 211 458 l 407 389 m 211 283 l 211 278 q 237 163 211 203 q 313 123 264 123 q 366 142 344 123 q 401 200 388 161 l 559 200 q 470 44 538 100 q 302 -12 401 -12 q 105 81 178 -12 q 32 332 32 174 q 105 585 32 492 q 302 677 178 677 q 501 586 434 677 q 568 315 568 494 l 568 283 l 211 283 m 109 879 q 134 936 109 911 q 190 960 158 960 q 248 936 223 960 q 272 879 272 911 q 248 821 272 845 q 190 798 224 798 q 133 822 157 798 q 109 879 109 846 m 332 879 q 356 936 332 911 q 412 960 380 960 q 470 936 446 960 q 494 879 494 911 q 471 821 494 845 q 412 798 447 798 q 355 822 379 798 q 332 879 332 846 z "},"í":{"ha":328,"x_min":62,"x_max":356,"o":"m 72 0 l 72 665 l 256 665 l 256 0 l 72 0 m 356 1007 l 153 755 l 62 755 l 189 1007 l 356 1007 z "},"ì":{"ha":328,"x_min":-28,"x_max":266,"o":"m 72 0 l 72 665 l 256 665 l 256 0 l 72 0 m -28 1007 l 139 1007 l 266 755 l 175 755 l -28 1007 z "},"î":{"ha":328,"x_min":-18,"x_max":346,"o":"m 72 0 l 72 665 l 256 665 l 256 0 l 72 0 m -18 755 l 96 1007 l 232 1007 l 346 755 l 264 755 l 164 903 l 64 755 l -18 755 z "},"ï":{"ha":328,"x_min":-28,"x_max":357,"o":"m 72 0 l 72 665 l 256 665 l 256 0 l 72 0 m -28 879 q -3 936 -28 911 q 53 960 21 960 q 111 936 86 960 q 135 879 135 911 q 111 821 135 845 q 53 798 87 798 q -4 822 20 798 q -28 879 -28 846 m 195 879 q 219 936 195 911 q 275 960 243 960 q 333 936 309 960 q 357 879 357 911 q 334 821 357 845 q 275 798 310 798 q 218 822 242 798 q 195 879 195 846 z "},"ñ":{"ha":621,"x_min":65,"x_max":558,"o":"m 375 0 l 375 403 q 361 481 375 460 q 315 503 348 503 q 264 477 280 503 q 249 395 249 452 l 249 0 l 65 0 l 65 665 l 236 665 l 236 562 q 317 645 272 618 q 419 672 362 672 q 528 628 497 672 q 558 454 558 584 l 558 0 l 375 0 m 493 974 q 453 848 481 887 q 374 808 424 808 q 354 810 364 808 q 332 815 344 812 l 281 833 q 261 839 271 837 q 243 840 252 840 q 213 828 224 840 q 193 787 201 816 l 130 787 q 172 908 143 869 q 248 947 201 947 q 271 945 258 947 q 298 937 283 943 l 349 921 q 363 917 356 918 q 378 916 371 916 q 411 929 398 916 q 431 974 423 943 l 493 974 z "},"ó":{"ha":616,"x_min":32,"x_max":586,"o":"m 309 149 q 384 197 357 149 q 411 335 411 245 q 384 472 411 424 q 309 521 357 521 q 233 473 260 521 q 207 335 207 425 q 233 197 207 245 q 309 149 260 149 m 586 334 q 510 81 586 175 q 309 -12 435 -12 q 107 81 182 -12 q 32 334 32 174 q 107 585 32 492 q 309 677 182 677 q 511 584 435 677 q 586 334 586 491 m 500 1007 l 298 755 l 207 755 l 334 1007 l 500 1007 z "},"ò":{"ha":616,"x_min":32,"x_max":586,"o":"m 309 149 q 384 197 357 149 q 411 335 411 245 q 384 472 411 424 q 309 521 357 521 q 233 473 260 521 q 207 335 207 425 q 233 197 207 245 q 309 149 260 149 m 586 334 q 510 81 586 175 q 309 -12 435 -12 q 107 81 182 -12 q 32 334 32 174 q 107 585 32 492 q 309 677 182 677 q 511 584 435 677 q 586 334 586 491 m 117 1007 l 283 1007 l 410 755 l 319 755 l 117 1007 z "},"ô":{"ha":616,"x_min":32,"x_max":586,"o":"m 309 149 q 384 197 357 149 q 411 335 411 245 q 384 472 411 424 q 309 521 357 521 q 233 473 260 521 q 207 335 207 425 q 233 197 207 245 q 309 149 260 149 m 586 334 q 510 81 586 175 q 309 -12 435 -12 q 107 81 182 -12 q 32 334 32 174 q 107 585 32 492 q 309 677 182 677 q 511 584 435 677 q 586 334 586 491 m 127 755 l 241 1007 l 376 1007 l 490 755 l 408 755 l 309 903 l 209 755 l 127 755 z "},"ö":{"ha":616,"x_min":32,"x_max":586,"o":"m 309 149 q 384 197 357 149 q 411 335 411 245 q 384 472 411 424 q 309 521 357 521 q 233 473 260 521 q 207 335 207 425 q 233 197 207 245 q 309 149 260 149 m 586 334 q 510 81 586 175 q 309 -12 435 -12 q 107 81 182 -12 q 32 334 32 174 q 107 585 32 492 q 309 677 182 677 q 511 584 435 677 q 586 334 586 491 m 117 879 q 141 936 117 911 q 197 960 165 960 q 255 936 231 960 q 279 879 279 911 q 256 821 279 845 q 197 798 232 798 q 140 822 164 798 q 117 879 117 846 m 339 879 q 363 936 339 911 q 420 960 387 960 q 477 936 453 960 q 502 879 502 911 q 478 821 502 845 q 420 798 454 798 q 363 822 387 798 q 339 879 339 846 z "},"õ":{"ha":616,"x_min":32,"x_max":586,"o":"m 309 149 q 384 197 357 149 q 411 335 411 245 q 384 472 411 424 q 309 521 357 521 q 233 473 260 521 q 207 335 207 425 q 233 197 207 245 q 309 149 260 149 m 586 334 q 510 81 586 175 q 309 -12 435 -12 q 107 81 182 -12 q 32 334 32 174 q 107 585 32 492 q 309 677 182 677 q 511 584 435 677 q 586 334 586 491 m 490 974 q 450 848 479 887 q 371 808 421 808 q 351 810 361 808 q 330 815 341 812 l 278 833 q 259 839 269 837 q 241 840 249 840 q 210 828 222 840 q 191 787 198 816 l 127 787 q 169 908 140 869 q 245 947 198 947 q 268 945 256 947 q 295 937 281 943 l 346 921 q 361 917 353 918 q 375 916 368 916 q 408 929 395 916 q 428 974 420 943 l 490 974 z "},"ú":{"ha":612,"x_min":62,"x_max":550,"o":"m 550 665 l 550 321 q 497 55 550 121 q 307 -12 445 -12 q 116 54 169 -12 q 62 321 62 121 l 62 665 l 241 665 l 241 237 q 256 167 241 185 q 306 149 270 149 q 356 168 342 149 q 371 237 371 186 l 371 665 l 550 665 m 499 1007 l 296 755 l 205 755 l 332 1007 l 499 1007 z "},"ù":{"ha":612,"x_min":62,"x_max":550,"o":"m 550 665 l 550 321 q 497 55 550 121 q 307 -12 445 -12 q 116 54 169 -12 q 62 321 62 121 l 62 665 l 241 665 l 241 237 q 256 167 241 185 q 306 149 270 149 q 356 168 342 149 q 371 237 371 186 l 371 665 l 550 665 m 115 1007 l 282 1007 l 409 755 l 318 755 l 115 1007 z "},"û":{"ha":612,"x_min":62,"x_max":550,"o":"m 550 665 l 550 321 q 497 55 550 121 q 307 -12 445 -12 q 116 54 169 -12 q 62 321 62 121 l 62 665 l 241 665 l 241 237 q 256 167 241 185 q 306 149 270 149 q 356 168 342 149 q 371 237 371 186 l 371 665 l 550 665 m 125 755 l 239 1007 l 375 1007 l 489 755 l 407 755 l 307 903 l 208 755 l 125 755 z "},"ü":{"ha":612,"x_min":62,"x_max":550,"o":"m 550 665 l 550 321 q 497 55 550 121 q 307 -12 445 -12 q 116 54 169 -12 q 62 321 62 121 l 62 665 l 241 665 l 241 237 q 256 167 241 185 q 306 149 270 149 q 356 168 342 149 q 371 237 371 186 l 371 665 l 550 665 m 115 879 q 140 936 115 911 q 196 960 164 960 q 254 936 229 960 q 278 879 278 911 q 254 821 278 845 q 196 798 231 798 q 139 822 163 798 q 115 879 115 846 m 338 879 q 362 936 338 911 q 418 960 386 960 q 476 936 452 960 q 500 879 500 911 q 477 821 500 845 q 418 798 453 798 q 361 822 385 798 q 338 879 338 846 z "},"†":{"ha":611,"x_min":41,"x_max":570,"o":"m 212 -268 l 212 501 l 41 501 l 41 675 l 212 675 l 212 990 l 399 990 l 399 675 l 570 675 l 570 501 l 399 501 l 399 -268 l 212 -268 z "},"°":{"ha":457,"x_min":29,"x_max":429,"o":"m 229 916 q 140 879 177 916 q 103 790 103 842 q 140 701 103 739 q 229 664 177 664 q 318 701 281 664 q 354 790 354 738 q 318 879 354 842 q 229 916 281 916 m 229 990 q 370 931 311 990 q 429 789 429 872 q 370 648 429 707 q 228 589 311 589 q 87 647 144 589 q 29 789 29 705 q 87 932 29 873 q 229 990 146 990 z "},"¢":{"ha":611,"x_min":40,"x_max":427,"o":"m 250 22 l 250 161 q 96 263 153 171 q 40 507 40 355 q 95 726 40 640 q 250 835 150 812 l 250 966 l 338 966 l 338 835 q 384 829 361 835 q 427 811 406 823 l 427 642 q 380 663 401 656 q 339 669 358 669 q 252 629 282 669 q 222 510 222 588 q 252 377 222 422 q 339 332 281 332 q 380 339 358 332 q 427 359 401 346 l 427 187 q 384 172 406 178 q 338 161 361 165 l 338 22 l 250 22 z "},"£":{"ha":611,"x_min":-5,"x_max":625,"o":"m 32 468 l 118 468 q 62 605 79 544 q 45 722 45 666 q 121 929 45 855 q 334 1003 197 1003 q 519 942 454 1003 q 585 766 585 880 l 585 746 l 433 700 l 433 710 q 407 802 433 770 q 329 833 380 833 q 252 799 279 833 q 225 703 225 765 q 262 551 225 654 q 291 468 281 498 l 469 468 l 469 374 l 309 374 q 316 322 314 342 q 318 288 318 302 q 310 222 318 254 q 285 160 302 191 q 335 138 310 145 q 387 131 361 131 q 469 150 431 131 q 549 211 507 169 l 625 81 q 522 10 576 32 q 399 -12 468 -12 q 278 9 351 -12 q 175 31 205 31 q 123 20 152 31 q 61 -12 95 9 l -5 104 q 63 157 27 140 q 139 175 98 175 q 148 174 142 175 q 157 174 154 174 q 165 229 163 205 q 168 273 168 253 q 164 323 168 298 q 151 374 160 349 l 32 374 l 32 468 z "},"§":{"ha":611,"x_min":40,"x_max":571,"o":"m 307 269 q 360 297 342 269 q 378 379 378 326 q 360 460 378 433 q 307 488 342 488 q 254 460 272 488 q 236 379 236 433 q 254 297 236 326 q 307 269 273 269 m 542 743 l 376 743 l 376 750 q 360 831 376 806 q 307 856 344 856 q 261 836 280 856 q 243 786 243 816 q 348 669 243 730 q 392 643 376 652 q 532 519 494 581 q 571 367 571 458 q 534 230 571 287 q 429 149 497 174 q 515 68 486 116 q 543 -45 543 20 q 479 -214 543 -149 q 309 -278 415 -278 q 142 -211 200 -278 q 85 -17 85 -143 l 85 -12 l 244 -12 l 244 -25 q 261 -105 244 -77 q 310 -132 278 -132 q 356 -110 338 -132 q 374 -52 374 -87 q 256 93 374 22 q 235 106 242 101 q 82 231 124 172 q 40 371 40 290 q 80 509 40 450 q 195 597 120 568 q 111 686 138 640 q 85 790 85 732 q 149 944 85 885 q 318 1003 213 1003 q 484 937 427 1003 q 542 747 542 871 l 542 743 z "},"•":{"ha":819,"x_min":208,"x_max":610,"o":"m 208 517 q 267 659 208 600 q 410 717 326 717 q 551 658 492 717 q 610 517 610 600 q 550 375 610 434 q 408 315 491 315 q 267 374 325 315 q 208 517 208 433 z "},"¶":{"ha":694,"x_min":37,"x_max":657,"o":"m 657 1003 l 657 936 l 578 936 l 578 0 l 490 0 l 490 936 l 376 936 l 376 0 l 288 0 l 288 532 q 105 600 174 536 q 37 766 37 665 q 110 938 37 873 q 302 1003 182 1003 l 657 1003 z "},"ß":{"ha":624,"x_min":71,"x_max":579,"o":"m 71 0 l 71 715 q 76 863 71 817 q 96 942 82 909 q 173 1027 119 997 q 301 1057 227 1057 q 491 986 425 1057 q 557 781 557 914 q 531 654 557 704 q 454 578 506 604 q 548 492 517 555 q 579 326 579 430 q 522 79 579 162 q 350 -4 464 -4 q 323 -3 338 -4 q 292 1 309 -2 l 292 180 q 301 179 296 180 q 314 179 305 179 q 378 219 359 179 q 397 358 397 258 q 374 456 397 423 q 306 489 351 489 q 299 488 304 489 q 292 488 294 488 l 292 646 q 356 674 336 646 q 375 771 375 703 q 358 877 375 843 q 307 911 342 911 q 260 878 273 911 q 248 730 248 845 l 248 625 l 248 0 l 71 0 z "},"®":{"ha":1157,"x_min":77,"x_max":1080,"o":"m 494 710 l 494 533 l 574 533 q 673 554 642 533 q 704 619 704 574 q 671 688 704 666 q 568 710 639 710 l 494 710 m 374 786 l 590 786 q 768 747 707 786 q 828 633 828 709 q 795 531 828 572 q 703 478 763 491 l 828 224 l 693 224 l 582 458 l 494 458 l 494 224 l 374 224 l 374 786 m 579 924 q 416 893 492 924 q 281 802 341 862 q 185 659 218 738 q 151 496 151 581 q 183 334 151 411 q 275 196 215 257 q 414 101 336 134 q 572 68 491 68 q 740 100 661 68 q 882 193 819 132 q 975 328 942 252 q 1007 489 1007 404 q 976 657 1007 579 q 885 796 945 734 q 744 891 822 859 q 579 924 667 924 m 578 997 q 773 959 682 997 q 937 847 865 921 q 1044 687 1007 777 q 1080 496 1080 597 q 1043 301 1080 392 q 933 140 1005 210 q 768 31 860 69 q 578 -7 677 -7 q 386 32 478 -7 q 222 144 294 71 q 114 307 151 216 q 77 496 77 397 q 116 688 77 595 q 228 854 155 781 q 387 961 298 925 q 578 997 475 997 z "},"©":{"ha":1157,"x_min":77,"x_max":1080,"o":"m 818 612 l 705 612 q 665 690 699 663 q 576 717 631 717 q 471 658 509 717 q 433 496 433 600 q 472 337 433 393 q 583 281 511 281 q 671 310 637 281 q 711 395 704 340 l 823 395 q 751 248 819 303 q 579 192 684 192 q 382 273 455 192 q 310 492 310 353 q 384 716 310 633 q 582 800 458 800 q 747 748 682 800 q 818 612 812 696 m 579 924 q 414 892 491 924 q 278 800 338 861 q 184 659 217 738 q 151 496 151 581 q 184 333 151 410 q 278 195 216 256 q 417 100 339 133 q 579 68 494 68 q 742 101 664 68 q 884 196 820 134 q 976 332 944 256 q 1007 496 1007 408 q 975 661 1007 583 q 884 799 943 739 q 745 892 822 860 q 579 924 667 924 m 578 997 q 772 960 681 997 q 935 850 863 922 q 1043 688 1006 779 q 1080 496 1080 597 q 1043 302 1080 392 q 936 143 1006 212 q 770 32 863 71 q 578 -7 677 -7 q 388 32 479 -7 q 225 142 297 70 q 115 305 153 214 q 77 496 77 396 q 115 686 77 594 q 227 851 154 778 q 386 960 298 924 q 578 997 475 997 z "},"™":{"ha":1157,"x_min":153,"x_max":965,"o":"m 549 990 l 664 990 l 760 746 l 850 990 l 965 990 l 965 623 l 888 623 l 888 913 l 779 623 l 739 623 l 627 913 l 627 623 l 549 623 l 549 990 m 153 990 l 469 990 l 469 926 l 355 926 l 355 623 l 268 623 l 268 926 l 153 926 l 153 990 z "},"´":{"ha":694,"x_min":245,"x_max":539,"o":"m 539 1007 l 336 755 l 245 755 l 372 1007 l 539 1007 z "},"¨":{"ha":694,"x_min":155,"x_max":541,"o":"m 155 879 q 180 936 155 911 q 236 960 204 960 q 294 936 269 960 q 318 879 318 911 q 294 821 318 845 q 236 798 271 798 q 179 822 203 798 q 155 879 155 846 m 378 879 q 402 936 378 911 q 458 960 426 960 q 516 936 492 960 q 541 879 541 911 q 517 821 541 845 q 458 798 493 798 q 401 822 425 798 q 378 879 378 846 z "},"≠":{"ha":1157,"x_min":172,"x_max":985,"o":"m 817 822 l 900 754 l 785 608 l 985 608 l 985 498 l 711 498 l 578 329 l 985 329 l 985 220 l 505 220 l 336 7 l 253 74 l 368 220 l 172 220 l 172 329 l 439 329 l 574 498 l 172 498 l 172 608 l 647 608 l 817 822 z "},"Æ":{"ha":785,"x_min":-7,"x_max":806,"o":"m 380 336 l 343 575 q 334 653 337 612 q 329 739 330 694 q 311 599 328 685 q 307 575 309 583 l 261 336 l 380 336 m -7 0 l 235 990 l 625 990 l 657 808 l 476 808 l 514 606 l 694 606 l 728 424 l 547 424 l 590 193 l 770 193 l 806 0 l 431 0 l 406 168 l 231 168 l 193 0 l -7 0 z "},"Ø":{"ha":785,"x_min":45,"x_max":739,"o":"m 476 789 q 438 813 459 805 q 392 821 418 821 q 274 742 312 821 q 236 498 236 664 q 242 396 236 446 q 260 297 248 346 l 476 789 m 111 -39 l 170 89 q 75 262 105 160 q 45 510 45 365 q 135 875 45 747 q 392 1003 225 1003 q 476 992 437 1003 q 551 960 515 981 l 595 1055 l 660 1022 l 610 908 q 707 734 674 838 q 739 496 739 631 q 647 123 739 258 q 392 -11 554 -11 q 306 1 346 -11 q 231 36 266 12 l 184 -66 l 111 -39 m 306 207 q 345 179 324 188 q 390 170 365 170 q 509 250 470 170 q 549 496 549 331 q 542 598 549 547 q 522 704 536 650 l 306 207 z "},"∞":{"ha":1157,"x_min":144,"x_max":1014,"o":"m 629 379 q 704 296 660 324 q 803 268 747 268 q 911 310 869 268 q 953 416 953 351 q 914 524 953 481 q 818 567 876 567 q 722 524 765 567 q 629 379 678 481 m 529 449 q 454 532 498 504 q 355 561 410 561 q 247 519 289 561 q 205 411 205 477 q 244 305 205 347 q 339 262 282 262 q 437 305 393 262 q 529 449 481 347 m 585 319 q 484 185 536 228 q 367 143 431 143 q 209 221 274 143 q 144 414 144 298 q 202 610 144 535 q 351 685 260 685 q 466 644 414 685 q 572 509 517 604 q 674 645 621 603 q 799 686 727 686 q 949 608 885 686 q 1014 415 1014 529 q 957 219 1014 294 q 807 144 899 144 q 694 183 745 144 q 585 319 644 222 z "},"±":{"ha":1157,"x_min":172,"x_max":985,"o":"m 172 123 l 985 123 l 985 9 l 172 9 l 172 123 m 521 818 l 636 818 l 636 591 l 985 591 l 985 479 l 636 479 l 636 253 l 521 253 l 521 479 l 172 479 l 172 591 l 521 591 l 521 818 z "},"≤":{"ha":1157,"x_min":176,"x_max":981,"o":"m 176 121 l 981 121 l 981 8 l 176 8 l 176 121 m 981 829 l 981 710 l 378 515 l 981 321 l 981 201 l 176 465 l 176 564 l 981 829 z "},"≥":{"ha":1157,"x_min":176,"x_max":982,"o":"m 176 121 l 982 121 l 982 8 l 176 8 l 176 121 m 176 829 l 981 564 l 981 465 l 176 201 l 176 321 l 781 515 l 176 710 l 176 829 z "},"¥":{"ha":671,"x_min":14,"x_max":657,"o":"m 243 0 l 243 447 l 17 447 l 17 504 l 228 504 l 180 611 l 17 611 l 17 668 l 155 668 l 14 990 l 201 990 l 272 807 q 273 804 273 806 q 340 611 317 692 q 369 716 355 669 q 400 803 384 764 l 481 990 l 657 990 l 517 668 l 656 668 l 656 611 l 492 611 l 444 504 l 656 504 l 656 447 l 428 447 l 428 0 l 243 0 z "},"µ":{"ha":819,"x_min":-62,"x_max":758,"o":"m 139 733 l 294 733 l 210 302 q 203 265 205 283 q 201 232 201 248 q 233 133 201 167 q 325 98 264 98 q 456 158 408 98 q 532 357 505 218 l 606 733 l 758 733 l 660 232 q 650 177 653 199 q 647 142 647 155 q 657 107 647 117 q 693 97 668 97 q 707 97 702 97 q 716 98 712 98 l 694 -9 q 648 -18 673 -16 q 593 -21 623 -21 q 517 0 543 -21 q 492 64 492 22 l 492 74 q 418 3 464 28 q 319 -22 373 -22 q 226 -5 264 -22 q 160 52 188 13 l 93 -292 l -62 -292 l 139 733 z "},"∂":{"ha":729,"x_min":62,"x_max":671,"o":"m 514 433 q 532 560 526 503 q 538 660 538 616 q 518 778 538 741 q 456 815 498 815 q 356 775 414 815 q 273 736 298 736 q 230 753 248 736 q 211 794 211 771 q 264 872 211 839 q 400 905 318 905 q 595 798 519 905 q 671 511 671 690 q 569 133 671 282 q 314 -17 467 -17 q 134 59 205 -17 q 62 253 62 135 q 139 472 62 384 q 328 559 216 559 q 441 529 396 559 q 514 433 486 498 m 478 342 q 450 463 478 420 q 371 505 422 505 q 253 416 300 505 q 205 187 205 327 q 233 67 205 109 q 313 25 260 25 q 431 115 384 25 q 478 342 478 205 z "},"∑":{"ha":964,"x_min":22,"x_max":936,"o":"m 41 999 l 909 999 l 909 846 l 285 846 l 724 382 l 275 -113 l 936 -113 l 936 -267 l 22 -267 l 22 -158 l 505 375 l 41 863 l 41 999 z "},"∏":{"ha":1071,"x_min":104,"x_max":964,"o":"m 104 999 l 964 999 l 964 -267 l 770 -267 l 770 833 l 298 833 l 298 -267 l 104 -267 l 104 999 z "},"π":{"ha":928,"x_min":12,"x_max":890,"o":"m 244 603 l 214 603 q 157 582 177 603 q 130 514 137 560 l 12 514 q 80 687 31 641 q 244 733 129 733 l 890 733 l 864 603 l 733 603 l 676 307 q 671 279 675 298 q 656 179 656 202 q 671 123 656 140 q 724 107 687 107 q 752 109 736 107 q 793 114 769 111 l 770 0 q 728 -8 750 -5 q 677 -11 707 -11 q 540 22 583 -11 q 497 126 497 54 q 532 359 497 178 l 533 363 l 581 603 l 399 603 l 281 0 l 127 0 l 244 603 z "},"∫":{"ha":760,"x_min":33,"x_max":728,"o":"m 220 -175 q 302 294 292 -175 q 304 378 304 349 q 381 898 313 743 q 593 1053 449 1053 q 690 1022 652 1053 q 728 946 728 991 q 705 882 728 905 q 640 859 682 859 q 590 874 610 859 q 562 918 570 889 q 558 949 559 930 q 541 977 556 976 q 460 559 472 977 q 454 391 456 450 q 434 101 448 201 q 393 -65 420 1 q 299 -204 356 -157 q 167 -252 241 -252 q 71 -222 108 -252 q 33 -146 33 -192 q 57 -80 33 -103 q 125 -57 81 -57 q 170 -69 151 -57 q 197 -106 188 -81 q 203 -146 201 -117 q 220 -175 205 -175 z "},"ª":{"ha":472,"x_min":32,"x_max":419,"o":"m 290 765 q 274 860 290 829 q 225 890 258 890 q 181 861 195 890 q 168 764 168 831 q 183 665 168 698 q 228 632 198 632 q 275 663 260 632 q 290 765 290 694 m 419 525 l 290 525 l 290 595 q 240 536 269 555 q 178 517 212 517 q 70 578 107 517 q 32 757 32 640 q 71 933 32 871 q 179 996 109 996 q 240 977 212 996 q 290 920 267 958 l 290 990 l 419 990 l 419 525 z "},"º":{"ha":463,"x_min":24,"x_max":440,"o":"m 232 629 q 289 663 269 629 q 309 760 309 697 q 288 856 309 822 q 232 890 268 890 q 175 857 195 890 q 155 760 155 823 q 175 663 155 696 q 232 629 195 629 m 440 758 q 383 582 440 648 q 232 517 326 517 q 80 582 137 517 q 24 758 24 648 q 80 935 24 869 q 232 1000 137 1000 q 384 935 327 1000 q 440 758 440 869 z "},"Ω":{"ha":1064,"x_min":47,"x_max":1017,"o":"m 810 144 l 1017 144 l 1017 0 l 608 0 l 608 155 q 772 321 717 219 q 828 559 828 423 q 746 791 828 702 q 532 880 664 880 q 317 790 398 880 q 236 551 236 701 q 293 319 236 422 q 456 155 350 217 l 456 0 l 47 0 l 47 144 l 254 144 q 111 330 157 233 q 65 549 65 428 q 194 893 65 762 q 532 1025 323 1025 q 868 894 737 1025 q 999 559 999 764 q 955 334 999 431 q 810 144 910 237 z "},"æ":{"ha":950,"x_min":24,"x_max":924,"o":"m 761 388 q 735 495 760 460 q 661 530 711 530 q 586 495 612 530 q 559 393 559 459 l 559 387 l 761 388 m 286 115 q 354 136 331 115 q 378 196 378 157 q 355 255 378 235 q 286 275 332 275 q 217 255 240 275 q 195 196 195 235 q 218 136 195 156 q 286 115 241 115 m 559 285 l 559 278 q 588 165 559 205 q 667 125 616 125 q 720 143 698 125 q 755 200 742 162 l 914 200 q 824 44 892 100 q 659 -12 756 -12 q 544 11 593 -12 q 453 86 495 35 q 366 12 415 36 q 254 -12 317 -12 q 86 45 148 -12 q 24 201 24 103 q 77 343 24 290 q 216 397 130 397 q 293 389 256 397 q 368 364 330 381 q 370 389 370 380 q 371 403 371 397 q 338 499 371 469 q 235 530 305 530 q 161 519 199 530 q 81 485 123 508 l 81 643 q 178 669 132 661 q 267 677 225 677 q 384 655 334 677 q 464 586 433 632 q 547 654 498 631 q 659 677 596 677 q 857 586 790 677 q 924 315 924 495 l 924 285 l 559 285 z "},"ø":{"ha":616,"x_min":32,"x_max":586,"o":"m 359 507 q 336 520 349 516 q 307 525 323 525 q 231 475 258 525 q 204 332 204 425 q 207 273 204 298 q 217 227 210 248 l 359 507 m 256 164 q 278 149 266 154 q 309 144 291 144 q 386 194 359 144 q 414 335 414 243 q 410 393 414 367 q 400 443 407 420 l 256 164 m 83 -40 l 131 54 q 57 168 83 99 q 32 323 32 237 q 106 584 32 489 q 309 679 180 679 q 375 672 345 679 q 432 650 406 665 l 471 729 l 526 699 l 485 612 q 561 493 536 560 q 586 334 586 425 q 510 81 586 175 q 309 -12 435 -12 q 242 -5 273 -12 q 183 16 212 1 l 139 -71 l 83 -40 z "},"¿":{"ha":599,"x_min":52,"x_max":566,"o":"m 400 677 l 400 446 q 289 405 321 442 q 256 281 256 367 q 272 194 256 223 q 322 165 289 165 q 367 192 351 165 q 382 268 382 218 l 382 275 l 566 275 l 566 252 q 501 54 566 121 q 313 -14 437 -14 q 118 64 184 -14 q 52 290 52 141 q 91 466 52 403 q 214 546 131 528 l 214 677 l 400 677 m 187 884 q 222 969 187 935 q 307 1003 256 1003 q 392 968 357 1003 q 427 884 427 934 q 392 798 427 833 q 307 764 357 764 q 222 798 257 764 q 187 884 187 833 z "},"¡":{"ha":382,"x_min":72,"x_max":311,"o":"m 98 700 l 285 700 l 285 0 l 98 0 l 98 700 m 192 1003 q 277 968 242 1003 q 311 884 311 934 q 277 798 311 833 q 192 764 242 764 q 107 798 142 764 q 72 884 72 833 q 106 969 72 935 q 192 1003 141 1003 z "},"¬":{"ha":1157,"x_min":172,"x_max":985,"o":"m 172 585 l 985 585 l 985 244 l 872 244 l 872 472 l 172 472 l 172 585 z "},"√":{"ha":897,"x_min":45,"x_max":899,"o":"m 765 1136 l 899 1136 l 899 1061 l 825 1061 l 422 -28 l 367 -28 l 153 564 l 64 530 l 45 595 l 252 668 l 419 201 l 765 1136 z "},"ƒ":{"ha":611,"x_min":-1,"x_max":571,"o":"m 200 454 l 85 454 l 107 599 l 224 599 l 257 812 q 321 957 273 911 q 461 1002 370 1002 q 513 997 486 1002 q 571 985 541 993 l 546 828 q 536 830 543 829 q 494 836 505 836 q 457 821 469 836 q 437 755 445 805 l 412 599 l 533 599 l 511 454 l 390 454 l 313 -33 q 244 -245 290 -182 q 117 -309 199 -309 q 62 -304 92 -309 q -1 -290 33 -299 l 22 -136 q 45 -142 37 -140 q 58 -143 52 -143 q 99 -126 85 -143 q 121 -49 112 -109 l 200 454 z "},"≈":{"ha":1157,"x_min":121,"x_max":1038,"o":"m 1038 401 l 1038 275 q 902 203 965 226 q 774 180 839 180 q 584 225 713 180 q 382 271 455 271 q 264 246 325 271 q 121 164 203 222 l 121 289 q 261 363 197 340 q 383 387 325 387 q 593 341 463 387 q 781 296 722 296 q 897 320 837 296 q 1038 401 958 345 m 1038 664 l 1038 539 q 901 466 964 488 q 774 443 838 443 q 585 489 714 443 q 382 534 456 534 q 267 511 326 534 q 121 428 207 487 l 121 553 q 260 627 195 602 q 383 652 325 652 q 593 606 465 652 q 775 559 722 559 q 898 583 838 559 q 1038 664 958 607 z "},"∆":{"ha":946,"x_min":-3,"x_max":949,"o":"m 473 811 l 216 144 l 729 144 l 473 811 m 386 999 l 559 999 l 949 0 l -3 0 l 386 999 z "},"«":{"ha":566,"x_min":22,"x_max":543,"o":"m 294 92 l 193 35 l 22 339 l 193 629 l 294 572 l 160 339 l 294 92 m 543 92 l 443 35 l 272 339 l 443 629 l 543 572 l 410 339 l 543 92 z "},"»":{"ha":566,"x_min":22,"x_max":543,"o":"m 272 92 l 406 339 l 272 572 l 374 629 l 543 339 l 374 35 l 272 92 m 22 92 l 155 339 l 22 572 l 123 629 l 294 339 l 123 35 l 22 92 z "},"…":{"ha":1389,"x_min":113,"x_max":1278,"o":"m 351 113 q 317 26 351 61 q 232 -8 283 -8 q 147 26 182 -8 q 113 113 113 61 q 147 198 113 163 q 232 232 182 232 q 317 198 282 232 q 351 113 351 163 m 814 113 q 780 26 814 61 q 694 -8 745 -8 q 610 26 644 -8 q 575 113 575 61 q 610 198 575 163 q 694 232 644 232 q 779 198 745 232 q 814 113 814 163 m 1278 113 q 1243 26 1278 61 q 1158 -8 1209 -8 q 1074 26 1108 -8 q 1039 113 1039 61 q 1074 198 1039 163 q 1158 232 1108 232 q 1243 198 1208 232 q 1278 113 1278 163 z "}," ":{"ha":611,"x_min":0,"x_max":0,"o":""},"À":{"ha":646,"x_min":-5,"x_max":652,"o":"m 258 328 l 390 328 q 353 545 370 431 q 325 785 337 659 q 293 559 310 673 q 258 328 277 445 m -5 0 l 225 990 l 432 990 l 652 0 l 454 0 l 421 174 l 222 174 l 192 0 l -5 0 m 137 1332 l 304 1332 l 431 1080 l 340 1080 l 137 1332 z "},"Ã":{"ha":646,"x_min":-5,"x_max":652,"o":"m 258 328 l 390 328 q 353 545 370 431 q 325 785 337 659 q 293 559 310 673 q 258 328 277 445 m -5 0 l 225 990 l 432 990 l 652 0 l 454 0 l 421 174 l 222 174 l 192 0 l -5 0 m 511 1299 q 470 1173 499 1212 q 391 1133 441 1133 q 372 1135 382 1133 q 350 1140 361 1137 l 298 1158 q 279 1163 289 1162 q 261 1165 269 1165 q 230 1153 242 1165 q 211 1112 218 1141 l 147 1112 q 190 1233 161 1194 q 265 1272 218 1272 q 289 1270 276 1272 q 315 1262 301 1267 l 366 1246 q 381 1242 374 1243 q 395 1240 389 1240 q 428 1254 416 1240 q 448 1299 441 1267 l 511 1299 z "},"Õ":{"ha":785,"x_min":45,"x_max":741,"o":"m 392 176 q 506 256 468 176 q 543 494 543 335 q 506 734 543 655 q 392 814 468 814 q 279 735 316 814 q 241 494 241 656 q 279 255 241 334 q 392 176 316 176 m 741 481 q 646 121 741 254 q 392 -12 551 -12 q 136 122 228 -12 q 45 494 45 256 q 137 868 45 732 q 392 1003 230 1003 q 648 865 555 1003 q 741 481 741 726 m 575 1299 q 535 1173 564 1212 q 456 1133 506 1133 q 436 1135 446 1133 q 414 1140 426 1137 l 363 1158 q 343 1163 353 1162 q 326 1165 334 1165 q 295 1153 307 1165 q 275 1112 283 1141 l 212 1112 q 254 1233 225 1194 q 330 1272 283 1272 q 353 1270 340 1272 q 380 1262 366 1267 l 431 1246 q 446 1242 438 1243 q 460 1240 453 1240 q 493 1254 480 1240 q 513 1299 505 1267 l 575 1299 z "},"Œ":{"ha":1003,"x_min":56,"x_max":960,"o":"m 401 178 q 507 255 470 178 q 543 479 543 332 q 509 734 543 655 q 401 814 475 814 q 296 735 331 814 q 261 496 261 656 q 294 253 261 328 q 401 178 328 178 m 543 83 q 468 14 513 37 q 361 -9 422 -9 q 140 129 224 -9 q 56 496 56 267 q 143 871 56 739 q 392 1003 231 1003 q 487 979 447 1003 q 551 905 526 954 l 551 990 l 960 990 l 960 799 l 729 799 l 729 597 l 929 597 l 929 415 l 729 415 l 729 193 l 960 193 l 960 0 l 543 0 l 543 83 z "},"œ":{"ha":972,"x_min":32,"x_max":947,"o":"m 310 149 q 386 197 359 149 q 412 335 412 245 q 386 473 412 425 q 310 521 359 521 q 234 472 260 521 q 207 335 207 424 q 234 197 207 245 q 310 149 260 149 m 785 388 q 759 495 783 460 q 684 530 734 530 q 609 493 635 530 q 583 387 583 456 l 785 388 m 583 285 l 583 279 q 612 166 583 207 q 690 125 640 125 q 743 144 721 125 q 779 200 765 163 l 937 200 q 847 44 916 100 q 682 -12 779 -12 q 577 6 622 -12 q 497 65 532 25 q 412 7 460 26 q 309 -12 365 -12 q 107 81 182 -12 q 32 332 32 174 q 107 584 32 491 q 309 677 182 677 q 415 659 369 677 q 496 600 462 640 q 577 658 530 638 q 682 677 624 677 q 881 587 814 677 q 947 317 947 496 l 947 285 l 583 285 z "},"–":{"ha":694,"x_min":0,"x_max":694,"o":"m 0 249 l 0 416 l 694 416 l 694 249 l 0 249 z "},"—":{"ha":1389,"x_min":0,"x_max":1389,"o":"m 0 249 l 0 416 l 1389 416 l 1389 249 l 0 249 z "},"“":{"ha":611,"x_min":22,"x_max":589,"o":"m 589 990 l 478 579 l 282 579 l 452 990 l 589 990 m 328 990 l 216 579 l 22 579 l 191 990 l 328 990 z "},"”":{"ha":611,"x_min":22,"x_max":589,"o":"m 22 579 l 132 990 l 328 990 l 160 579 l 22 579 m 282 579 l 393 990 l 589 990 l 421 579 l 282 579 z "},"‘":{"ha":350,"x_min":22,"x_max":328,"o":"m 22 579 l 191 990 l 328 990 l 216 579 l 22 579 z "},"’":{"ha":350,"x_min":22,"x_max":328,"o":"m 22 579 l 134 990 l 328 990 l 160 579 l 22 579 z "},"÷":{"ha":1157,"x_min":172,"x_max":985,"o":"m 579 249 q 645 221 618 249 q 672 155 672 194 q 645 91 672 117 q 579 64 618 64 q 513 90 540 64 q 486 155 486 117 q 514 221 486 194 q 579 249 541 249 m 172 471 l 985 471 l 985 358 l 172 358 l 172 471 m 579 765 q 645 737 618 765 q 672 671 672 709 q 645 606 672 633 q 579 579 618 579 q 513 606 540 579 q 486 671 486 632 q 514 737 486 709 q 579 765 541 765 z "},"◊":{"ha":686,"x_min":4,"x_max":682,"o":"m 343 956 l 82 401 l 343 -158 l 604 401 l 343 956 m 343 1121 l 682 401 l 343 -323 l 4 401 l 343 1121 z "},"ÿ":{"ha":514,"x_min":1,"x_max":521,"o":"m 92 -268 l 174 0 l 1 665 l 182 665 l 246 370 q 255 311 252 342 q 260 246 259 279 q 272 343 269 319 q 279 382 276 368 l 340 665 l 521 665 l 271 -268 l 92 -268 m 65 879 q 90 936 65 911 q 146 960 114 960 q 203 936 179 960 q 228 879 228 911 q 204 821 228 845 q 146 798 180 798 q 89 822 113 798 q 65 879 65 846 m 288 879 q 312 936 288 911 q 368 960 336 960 q 426 936 401 960 q 450 879 450 911 q 427 821 450 845 q 368 798 403 798 q 311 822 335 798 q 288 879 288 846 z "},"Ÿ":{"ha":543,"x_min":-57,"x_max":599,"o":"m 172 0 l 172 465 l -57 990 l 151 990 l 216 811 q 250 715 235 763 q 278 618 264 667 q 304 720 290 673 q 334 806 319 768 l 406 990 l 599 990 l 368 465 l 368 0 l 172 0 m 80 1204 q 104 1260 80 1236 q 161 1284 129 1284 q 218 1260 194 1284 q 243 1204 243 1236 q 219 1146 243 1170 q 161 1122 195 1122 q 104 1146 127 1122 q 80 1204 80 1171 m 302 1204 q 327 1260 302 1236 q 383 1284 351 1284 q 441 1260 416 1284 q 465 1204 465 1236 q 441 1146 465 1170 q 383 1122 418 1122 q 326 1146 350 1122 q 302 1204 302 1171 z "},"∕":{"ha":232,"x_min":-232,"x_max":463,"o":"m -232 -12 l 347 1003 l 463 1003 l -117 -12 l -232 -12 z "},"¤":{"ha":842,"x_min":52,"x_max":793,"o":"m 422 798 q 283 739 341 798 q 225 600 225 681 q 282 461 225 519 q 422 404 340 404 q 562 461 505 404 q 619 600 619 519 q 561 739 619 681 q 422 798 503 798 m 114 970 l 252 832 q 331 874 289 860 q 421 888 373 888 q 512 874 469 888 q 591 832 555 860 l 729 970 l 793 907 l 654 768 q 694 689 681 732 q 708 600 708 647 q 694 510 708 553 q 654 432 681 468 l 793 293 l 729 231 l 591 370 q 511 328 553 341 q 422 314 470 314 q 331 328 374 314 q 252 370 288 342 l 114 231 l 52 293 l 189 432 q 149 510 162 468 q 135 600 135 553 q 149 689 135 647 q 189 768 162 732 l 52 907 l 114 970 z "},"‹":{"ha":314,"x_min":21,"x_max":293,"o":"m 293 92 l 192 35 l 21 339 l 192 629 l 293 572 l 158 339 l 293 92 z "},"›":{"ha":314,"x_min":21,"x_max":293,"o":"m 21 92 l 154 339 l 21 572 l 122 629 l 293 339 l 122 35 l 21 92 z "},"":{"ha":665,"x_min":17,"x_max":607,"o":"m 396 843 q 426 919 396 888 q 501 950 456 950 q 576 919 545 950 q 607 843 607 888 q 576 769 607 800 q 501 739 545 739 q 426 769 456 739 q 396 843 396 798 m 411 0 l 411 665 l 593 665 l 593 0 l 411 0 m 347 1057 l 347 901 q 338 901 343 901 q 326 901 334 901 q 279 882 292 901 q 267 778 267 863 l 267 665 l 347 665 l 347 525 l 267 525 l 267 0 l 83 0 l 83 525 l 17 525 l 17 665 l 83 665 l 83 842 q 92 942 83 909 q 119 1000 100 975 q 184 1048 144 1031 q 277 1064 224 1064 q 307 1062 290 1064 q 347 1057 324 1061 z "},"":{"ha":665,"x_min":17,"x_max":593,"o":"m 411 0 l 411 1051 l 593 1051 l 593 0 l 411 0 m 347 1057 l 347 901 q 338 901 343 901 q 326 901 334 901 q 279 882 292 901 q 267 778 267 863 l 267 665 l 347 665 l 347 525 l 267 525 l 267 0 l 83 0 l 83 525 l 17 525 l 17 665 l 83 665 l 83 842 q 92 942 83 909 q 119 1000 100 975 q 184 1048 144 1031 q 277 1064 224 1064 q 307 1062 290 1064 q 347 1057 324 1061 z "},"‡":{"ha":611,"x_min":35,"x_max":575,"o":"m 215 -268 l 215 25 l 35 25 l 35 196 l 215 196 l 215 533 l 35 533 l 35 704 l 215 704 l 215 990 l 396 990 l 396 704 l 575 704 l 575 533 l 396 533 l 396 196 l 575 196 l 575 25 l 396 25 l 396 -268 l 215 -268 z "},"·":{"ha":306,"x_min":33,"x_max":272,"o":"m 272 494 q 238 409 272 444 q 153 375 203 375 q 67 409 102 375 q 33 494 33 443 q 68 579 33 545 q 153 614 102 614 q 237 579 203 614 q 272 494 272 545 z "},"‚":{"ha":350,"x_min":22,"x_max":328,"o":"m 22 -191 l 134 221 l 328 221 l 160 -191 l 22 -191 z "},"„":{"ha":611,"x_min":22,"x_max":589,"o":"m 22 -191 l 132 221 l 328 221 l 160 -191 l 22 -191 m 282 -191 l 393 221 l 589 221 l 421 -191 l 282 -191 z "},"‰":{"ha":1601,"x_min":50,"x_max":1550,"o":"m 261 -12 l 753 1003 l 863 1003 l 374 -12 l 261 -12 m 1295 283 q 1308 147 1295 183 q 1354 111 1321 111 q 1399 147 1386 111 q 1413 283 1413 183 q 1399 422 1413 385 q 1353 458 1386 458 q 1308 422 1320 458 q 1295 283 1295 385 m 1550 285 q 1499 64 1550 140 q 1353 -12 1449 -12 q 1206 64 1257 -12 q 1156 285 1156 140 q 1206 507 1156 430 q 1353 583 1257 583 q 1499 507 1449 583 q 1550 285 1550 430 m 822 283 q 835 146 822 181 q 880 111 848 111 q 927 148 913 111 q 940 283 940 185 q 927 422 940 385 q 880 458 913 458 q 835 422 848 458 q 822 283 822 385 m 1078 285 q 1027 64 1078 140 q 880 -12 977 -12 q 734 64 785 -12 q 684 285 684 140 q 734 507 684 430 q 880 583 785 583 q 1027 507 977 583 q 1078 285 1078 431 m 187 707 q 201 570 187 606 q 248 534 214 534 q 293 571 279 534 q 306 707 306 607 q 293 845 306 810 q 248 880 280 880 q 201 843 214 880 q 187 707 187 806 m 444 704 q 394 483 444 559 q 248 407 343 407 q 101 483 152 407 q 50 704 50 559 q 101 926 50 849 q 248 1003 151 1003 q 394 926 343 1003 q 444 704 444 849 z "},"Â":{"ha":646,"x_min":-5,"x_max":652,"o":"m 258 328 l 390 328 q 353 545 370 431 q 325 785 337 659 q 293 559 310 673 q 258 328 277 445 m -5 0 l 225 990 l 432 990 l 652 0 l 454 0 l 421 174 l 222 174 l 192 0 l -5 0 m 147 1080 l 261 1332 l 397 1332 l 511 1080 l 429 1080 l 329 1227 l 229 1080 l 147 1080 z "},"Ê":{"ha":550,"x_min":78,"x_max":494,"o":"m 78 0 l 78 990 l 494 990 l 494 807 l 269 807 l 269 607 l 473 607 l 473 425 l 269 425 l 269 193 l 494 193 l 494 0 l 78 0 m 102 1080 l 216 1332 l 351 1332 l 465 1080 l 383 1080 l 283 1227 l 184 1080 l 102 1080 z "},"Á":{"ha":646,"x_min":-5,"x_max":652,"o":"m 258 328 l 390 328 q 353 545 370 431 q 325 785 337 659 q 293 559 310 673 q 258 328 277 445 m -5 0 l 225 990 l 432 990 l 652 0 l 454 0 l 421 174 l 222 174 l 192 0 l -5 0 m 521 1332 l 318 1080 l 227 1080 l 354 1332 l 521 1332 z "},"Ë":{"ha":550,"x_min":78,"x_max":494,"o":"m 78 0 l 78 990 l 494 990 l 494 807 l 269 807 l 269 607 l 473 607 l 473 425 l 269 425 l 269 193 l 494 193 l 494 0 l 78 0 m 92 1204 q 116 1260 92 1236 q 172 1284 140 1284 q 230 1260 205 1284 q 254 1204 254 1236 q 231 1146 254 1170 q 172 1122 207 1122 q 115 1146 139 1122 q 92 1204 92 1171 m 314 1204 q 338 1260 314 1236 q 395 1284 362 1284 q 452 1260 428 1284 q 477 1204 477 1236 q 453 1146 477 1170 q 395 1122 429 1122 q 338 1146 361 1122 q 314 1204 314 1171 z "},"È":{"ha":550,"x_min":78,"x_max":494,"o":"m 78 0 l 78 990 l 494 990 l 494 807 l 269 807 l 269 607 l 473 607 l 473 425 l 269 425 l 269 193 l 494 193 l 494 0 l 78 0 m 92 1332 l 258 1332 l 385 1080 l 294 1080 l 92 1332 z "},"Í":{"ha":375,"x_min":85,"x_max":379,"o":"m 86 0 l 86 990 l 288 990 l 288 0 l 86 0 m 379 1332 l 176 1080 l 85 1080 l 212 1332 l 379 1332 z "},"Î":{"ha":375,"x_min":5,"x_max":369,"o":"m 86 0 l 86 990 l 288 990 l 288 0 l 86 0 m 5 1080 l 119 1332 l 255 1332 l 369 1080 l 287 1080 l 187 1227 l 87 1080 l 5 1080 z "},"Ï":{"ha":375,"x_min":-5,"x_max":380,"o":"m 86 0 l 86 990 l 288 990 l 288 0 l 86 0 m -5 1204 q 20 1260 -5 1236 q 76 1284 44 1284 q 134 1260 109 1284 q 158 1204 158 1236 q 134 1146 158 1170 q 76 1122 111 1122 q 19 1146 43 1122 q -5 1204 -5 1171 m 218 1204 q 242 1260 218 1236 q 298 1284 266 1284 q 356 1260 332 1284 q 380 1204 380 1236 q 357 1146 380 1170 q 298 1122 333 1122 q 241 1146 265 1122 q 218 1204 218 1171 z "},"Ì":{"ha":375,"x_min":-5,"x_max":289,"o":"m 86 0 l 86 990 l 288 990 l 288 0 l 86 0 m -5 1332 l 162 1332 l 289 1080 l 198 1080 l -5 1332 z "},"Ó":{"ha":785,"x_min":45,"x_max":741,"o":"m 392 176 q 506 256 468 176 q 543 494 543 335 q 506 734 543 655 q 392 814 468 814 q 279 735 316 814 q 241 494 241 656 q 279 255 241 334 q 392 176 316 176 m 741 481 q 646 121 741 254 q 392 -12 551 -12 q 136 122 228 -12 q 45 494 45 256 q 137 868 45 732 q 392 1003 230 1003 q 648 865 555 1003 q 741 481 741 726 m 585 1332 l 382 1080 l 292 1080 l 418 1332 l 585 1332 z "},"Ô":{"ha":785,"x_min":45,"x_max":741,"o":"m 392 176 q 506 256 468 176 q 543 494 543 335 q 506 734 543 655 q 392 814 468 814 q 279 735 316 814 q 241 494 241 656 q 279 255 241 334 q 392 176 316 176 m 741 481 q 646 121 741 254 q 392 -12 551 -12 q 136 122 228 -12 q 45 494 45 256 q 137 868 45 732 q 392 1003 230 1003 q 648 865 555 1003 q 741 481 741 726 m 212 1080 l 326 1332 l 461 1332 l 575 1080 l 493 1080 l 393 1227 l 294 1080 l 212 1080 z "},"":{"ha":1097,"x_min":77,"x_max":1021,"o":"m 567 825 q 566 834 566 829 q 566 850 566 840 q 630 1005 566 934 q 790 1095 694 1077 q 791 1079 791 1088 q 791 1053 791 1070 q 721 893 791 964 q 583 823 651 823 l 578 823 q 573 824 576 823 q 567 825 570 825 m 1021 273 q 882 41 943 106 q 743 -24 820 -24 q 654 -1 709 -24 q 571 21 599 21 q 482 -1 541 21 q 396 -24 424 -24 q 309 6 353 -24 q 221 96 265 36 q 114 296 152 191 q 77 500 77 401 q 161 742 77 648 q 380 835 246 835 q 486 812 427 835 q 570 789 545 789 q 652 812 593 789 q 755 836 711 836 q 890 809 830 836 q 999 725 949 782 q 896 626 930 681 q 863 503 863 572 q 903 367 863 426 q 1021 273 944 308 z "},"Ò":{"ha":785,"x_min":45,"x_max":741,"o":"m 392 176 q 506 256 468 176 q 543 494 543 335 q 506 734 543 655 q 392 814 468 814 q 279 735 316 814 q 241 494 241 656 q 279 255 241 334 q 392 176 316 176 m 741 481 q 646 121 741 254 q 392 -12 551 -12 q 136 122 228 -12 q 45 494 45 256 q 137 868 45 732 q 392 1003 230 1003 q 648 865 555 1003 q 741 481 741 726 m 201 1332 l 368 1332 l 495 1080 l 404 1080 l 201 1332 z "},"Ú":{"ha":762,"x_min":72,"x_max":690,"o":"m 690 990 l 690 368 q 684 207 690 254 q 661 127 677 159 q 557 22 625 56 q 382 -12 489 -12 q 206 22 275 -12 q 102 127 137 56 q 79 208 85 159 q 72 368 72 256 l 72 397 l 72 990 l 269 990 l 269 353 q 294 196 269 231 q 382 161 319 161 q 470 197 446 161 q 494 353 494 233 l 494 990 l 690 990 m 574 1332 l 371 1080 l 280 1080 l 407 1332 l 574 1332 z "},"Û":{"ha":762,"x_min":72,"x_max":690,"o":"m 690 990 l 690 368 q 684 207 690 254 q 661 127 677 159 q 557 22 625 56 q 382 -12 489 -12 q 206 22 275 -12 q 102 127 137 56 q 79 208 85 159 q 72 368 72 256 l 72 397 l 72 990 l 269 990 l 269 353 q 294 196 269 231 q 382 161 319 161 q 470 197 446 161 q 494 353 494 233 l 494 990 l 690 990 m 200 1080 l 314 1332 l 450 1332 l 564 1080 l 481 1080 l 382 1227 l 282 1080 l 200 1080 z "},"Ù":{"ha":762,"x_min":72,"x_max":690,"o":"m 690 990 l 690 368 q 684 207 690 254 q 661 127 677 159 q 557 22 625 56 q 382 -12 489 -12 q 206 22 275 -12 q 102 127 137 56 q 79 208 85 159 q 72 368 72 256 l 72 397 l 72 990 l 269 990 l 269 353 q 294 196 269 231 q 382 161 319 161 q 470 197 446 161 q 494 353 494 233 l 494 990 l 690 990 m 190 1332 l 357 1332 l 484 1080 l 393 1080 l 190 1332 z "},"ı":{"ha":328,"x_min":72,"x_max":256,"o":"m 72 0 l 72 665 l 256 665 l 256 0 l 72 0 z "},"ˆ":{"ha":694,"x_min":165,"x_max":529,"o":"m 165 755 l 279 1007 l 415 1007 l 529 755 l 447 755 l 347 903 l 248 755 l 165 755 z "},"˜":{"ha":694,"x_min":165,"x_max":529,"o":"m 529 974 q 489 848 517 887 q 410 808 460 808 q 390 810 400 808 q 368 815 380 812 l 317 833 q 297 839 307 837 q 279 840 288 840 q 249 828 260 840 q 229 787 237 816 l 165 787 q 208 908 179 869 q 283 947 237 947 q 307 945 294 947 q 334 937 319 943 l 385 921 q 399 917 392 918 q 414 916 407 916 q 447 929 434 916 q 467 974 459 943 l 529 974 z "},"¯":{"ha":694,"x_min":180,"x_max":515,"o":"m 180 827 l 180 925 l 515 925 l 515 827 l 180 827 z "},"˘":{"ha":694,"x_min":164,"x_max":530,"o":"m 164 983 l 236 983 q 268 907 241 930 q 347 884 294 884 q 428 907 401 884 q 458 983 454 930 l 530 983 q 485 829 530 880 q 347 778 439 778 q 211 829 257 778 q 164 979 164 880 l 164 983 z "},"˙":{"ha":694,"x_min":260,"x_max":436,"o":"m 260 879 q 287 941 260 913 q 347 968 313 968 q 409 941 382 968 q 436 879 436 915 q 410 817 436 843 q 347 791 384 791 q 286 818 312 791 q 260 879 260 844 z "},"˚":{"ha":694,"x_min":168,"x_max":528,"o":"m 262 922 q 287 862 262 886 q 347 838 311 838 q 408 862 383 838 q 433 922 433 886 q 408 983 433 958 q 347 1008 382 1008 q 287 983 312 1008 q 262 922 262 958 m 168 924 q 220 1051 168 999 q 347 1103 272 1103 q 475 1051 423 1103 q 528 924 528 999 q 475 795 528 848 q 347 743 423 743 q 220 795 271 743 q 168 924 168 847 z "},"¸":{"ha":694,"x_min":186,"x_max":493,"o":"m 186 -297 l 186 -210 q 266 -231 229 -224 q 329 -239 303 -239 q 373 -226 358 -239 q 387 -189 387 -214 q 370 -153 387 -164 q 314 -142 352 -142 q 297 -142 303 -142 q 285 -143 290 -142 l 285 0 l 350 0 l 350 -61 l 358 -61 q 459 -94 425 -61 q 493 -191 493 -126 q 454 -292 493 -258 q 339 -326 416 -326 q 271 -319 310 -326 q 186 -297 232 -311 z "},"˝":{"ha":694,"x_min":212,"x_max":618,"o":"m 382 755 l 471 1007 l 618 1007 l 460 755 l 382 755 m 212 755 l 277 1007 l 418 1007 l 285 755 l 212 755 z "},"˛":{"ha":694,"x_min":245,"x_max":449,"o":"m 418 0 q 362 -69 381 -33 q 343 -139 343 -104 q 355 -181 343 -168 q 396 -193 367 -193 l 449 -193 l 449 -311 l 386 -311 q 281 -280 317 -311 q 245 -186 245 -248 q 272 -94 245 -138 q 358 0 299 -50 l 418 0 z "},"ˇ":{"ha":694,"x_min":165,"x_max":529,"o":"m 165 1007 l 248 1007 l 347 859 l 447 1007 l 529 1007 l 415 755 l 279 755 l 165 1007 z "},"Ł":{"ha":507,"x_min":0,"x_max":509,"o":"m 86 0 l 86 386 l 0 325 l 0 514 l 86 574 l 86 990 l 283 990 l 283 679 l 424 779 l 424 590 l 283 490 l 283 193 l 509 193 l 509 0 l 86 0 z "},"ł":{"ha":347,"x_min":0,"x_max":347,"o":"m 82 378 l 0 321 l 0 464 l 82 521 l 82 1051 l 265 1051 l 265 604 l 347 663 l 347 519 l 265 461 l 265 0 l 82 0 l 82 378 z "},"Š":{"ha":533,"x_min":32,"x_max":503,"o":"m 47 35 l 47 240 q 121 191 85 208 q 193 175 157 175 q 272 201 243 175 q 301 273 301 228 q 223 395 301 330 q 191 424 201 414 q 66 570 100 505 q 32 717 32 635 q 104 924 32 845 q 293 1003 176 1003 q 375 991 334 1003 q 460 954 415 979 l 460 779 q 379 814 408 804 q 328 823 350 823 q 258 797 285 823 q 231 726 231 770 q 251 655 231 688 q 346 558 271 623 q 474 416 446 473 q 503 279 503 359 q 426 66 503 144 q 218 -12 350 -12 q 126 -1 168 -12 q 47 35 83 11 m 85 1332 l 167 1332 l 267 1183 l 366 1332 l 448 1332 l 334 1080 l 199 1080 l 85 1332 z "},"š":{"ha":465,"x_min":18,"x_max":432,"o":"m 18 57 l 94 192 q 153 159 128 170 q 199 149 178 149 q 234 162 220 149 q 248 196 248 176 q 180 273 248 231 q 153 290 162 284 q 61 376 87 334 q 35 475 35 418 q 93 623 35 568 q 250 677 151 677 q 345 664 300 677 q 432 621 390 650 l 354 489 q 305 522 328 511 q 262 533 282 533 q 226 521 240 533 q 212 489 212 509 q 275 421 212 460 q 306 401 295 409 q 404 309 376 353 q 432 205 432 265 q 368 48 432 109 q 201 -12 304 -12 q 106 5 151 -12 q 18 57 60 22 m 52 1007 l 134 1007 l 233 859 l 333 1007 l 415 1007 l 301 755 l 165 755 l 52 1007 z "},"Ž":{"ha":595,"x_min":-11,"x_max":575,"o":"m -11 0 l 309 808 l 36 808 l 36 990 l 575 990 l 260 193 l 547 193 l 547 0 l -11 0 m 115 1332 l 197 1332 l 297 1183 l 397 1332 l 479 1332 l 365 1080 l 229 1080 l 115 1332 z "},"ž":{"ha":457,"x_min":12,"x_max":441,"o":"m 12 0 l 204 517 l 28 517 l 28 665 l 441 665 l 253 160 l 428 160 l 428 0 l 12 0 m 47 1007 l 130 1007 l 229 859 l 329 1007 l 411 1007 l 297 755 l 161 755 l 47 1007 z "},"¦":{"ha":694,"x_min":288,"x_max":408,"o":"m 288 277 l 408 277 l 408 -237 l 288 -237 l 288 277 m 288 971 l 408 971 l 408 457 l 288 457 l 288 971 z "},"Ð":{"ha":754,"x_min":0,"x_max":710,"o":"m 279 183 l 296 183 q 457 261 403 183 q 511 494 511 339 q 457 731 511 652 q 293 810 402 810 l 279 810 l 279 612 l 383 612 l 383 441 l 279 441 l 279 183 m 83 0 l 83 441 l 0 441 l 0 612 l 83 612 l 83 990 l 254 990 q 597 867 484 990 q 710 494 710 745 q 668 242 710 344 q 539 74 627 140 q 420 17 487 34 q 232 0 353 0 l 83 0 z "},"ð":{"ha":616,"x_min":32,"x_max":586,"o":"m 358 667 q 327 746 341 711 q 297 810 312 781 l 161 746 l 119 836 l 252 896 q 199 990 217 960 q 164 1046 181 1021 l 343 1046 q 367 1000 356 1020 q 390 961 378 979 l 498 1011 l 539 922 l 437 875 q 550 600 515 726 q 586 353 586 474 q 513 84 586 180 q 309 -12 439 -12 q 107 81 182 -12 q 32 334 32 174 q 106 584 32 490 q 304 677 181 677 q 332 675 319 677 q 358 667 346 672 m 309 149 q 384 197 357 149 q 411 335 411 245 q 384 472 411 424 q 309 521 357 521 q 233 473 260 521 q 207 335 207 425 q 233 197 207 245 q 309 149 260 149 z "},"Ý":{"ha":543,"x_min":-57,"x_max":599,"o":"m 172 0 l 172 465 l -57 990 l 151 990 l 216 811 q 250 715 235 763 q 278 618 264 667 q 304 720 290 673 q 334 806 319 768 l 406 990 l 599 990 l 368 465 l 368 0 l 172 0 m 464 1332 l 261 1080 l 170 1080 l 297 1332 l 464 1332 z "},"ý":{"ha":514,"x_min":1,"x_max":521,"o":"m 92 -268 l 174 0 l 1 665 l 182 665 l 246 370 q 255 311 252 342 q 260 246 259 279 q 272 343 269 319 q 279 382 276 368 l 340 665 l 521 665 l 271 -268 l 92 -268 m 449 1007 l 246 755 l 155 755 l 282 1007 l 449 1007 z "},"Þ":{"ha":632,"x_min":78,"x_max":606,"o":"m 269 374 q 280 373 273 374 q 290 372 287 372 q 386 408 353 372 q 419 513 419 444 q 388 616 419 583 q 290 650 357 650 q 280 649 287 650 q 269 648 273 648 l 269 374 m 78 0 l 78 990 l 269 990 l 269 803 l 283 803 q 526 732 447 803 q 606 515 606 661 q 529 299 606 376 q 314 222 452 222 q 287 223 296 222 q 269 223 277 223 l 269 0 l 78 0 z "},"þ":{"ha":629,"x_min":69,"x_max":586,"o":"m 328 522 q 265 480 285 522 q 245 343 245 438 q 264 195 245 239 q 325 151 283 151 q 385 198 366 151 q 404 346 404 245 q 386 480 404 439 q 328 522 368 522 m 69 -268 l 69 1051 l 245 1051 l 245 571 q 310 647 274 621 q 390 672 347 672 q 535 584 485 672 q 586 329 586 495 q 536 75 586 165 q 395 -16 486 -16 q 309 13 347 -16 q 245 97 271 42 l 245 -268 l 69 -268 z "},"−":{"ha":1157,"x_min":172,"x_max":985,"o":"m 172 472 l 985 472 l 985 357 l 172 357 l 172 472 z "},"×":{"ha":1157,"x_min":195,"x_max":977,"o":"m 273 806 l 585 494 l 897 806 l 977 726 l 665 414 l 977 103 l 897 22 l 585 335 l 273 22 l 195 103 l 505 414 l 195 726 l 273 806 z "},"¹":{"ha":403,"x_min":87,"x_max":277,"o":"m 150 396 l 150 892 l 87 892 l 87 990 l 277 990 l 277 396 l 150 396 z "},"²":{"ha":403,"x_min":28,"x_max":368,"o":"m 28 396 l 189 681 q 234 775 218 731 q 250 848 250 820 q 238 892 250 877 q 203 907 226 907 q 157 882 170 907 q 144 787 144 858 l 39 788 q 38 797 38 792 q 37 811 37 802 q 81 950 37 903 q 210 997 125 997 q 325 958 282 997 q 368 851 368 918 q 347 751 368 806 q 260 590 325 696 l 204 498 l 351 498 l 351 396 l 28 396 z "},"³":{"ha":403,"x_min":21,"x_max":378,"o":"m 22 566 l 131 566 l 131 559 q 144 507 131 526 q 182 489 157 489 q 225 511 210 489 q 240 574 240 532 q 221 641 240 621 q 158 661 202 661 l 142 661 l 142 758 l 150 758 q 227 776 203 758 q 250 833 250 793 q 236 881 250 864 q 199 899 222 899 q 161 882 174 899 q 149 831 149 865 l 149 823 l 43 823 l 43 839 q 84 957 43 916 q 205 997 126 997 q 318 956 279 997 q 357 836 357 914 q 332 750 357 782 q 260 713 307 718 l 260 705 q 349 659 319 694 q 378 566 378 625 q 327 435 378 483 q 187 387 276 387 q 65 430 109 387 q 21 550 21 473 q 22 557 21 553 q 22 566 22 562 z "},"¼":{"ha":1002,"x_min":83,"x_max":977,"o":"m 722 221 l 827 221 l 827 378 q 828 407 827 388 q 831 451 829 425 q 807 387 817 413 q 787 346 796 361 l 722 221 m 821 0 l 821 138 l 642 138 l 642 221 l 806 554 l 925 554 l 925 221 l 977 221 l 977 138 l 925 138 l 925 0 l 821 0 m 153 -12 l 732 1003 l 847 1003 l 268 -12 l 153 -12 m 143 436 l 143 899 l 83 899 l 83 990 l 264 990 l 264 436 l 143 436 z "},"½":{"ha":1002,"x_min":83,"x_max":968,"o":"m 644 0 l 798 265 q 841 356 825 315 q 856 424 856 397 q 844 464 856 450 q 810 478 831 478 q 767 455 779 478 q 755 366 755 433 l 653 366 l 653 387 q 694 517 653 473 q 817 561 736 561 q 927 524 886 561 q 968 425 968 488 q 947 331 968 382 q 865 180 927 280 l 811 96 l 951 96 l 951 0 l 644 0 m 153 -12 l 732 1003 l 847 1003 l 268 -12 l 153 -12 m 143 436 l 143 899 l 83 899 l 83 990 l 264 990 l 264 436 l 143 436 z "},"¾":{"ha":1002,"x_min":20,"x_max":977,"o":"m 722 221 l 827 221 l 827 378 q 828 407 827 388 q 831 451 829 425 q 807 387 817 413 q 787 346 796 361 l 722 221 m 821 0 l 821 138 l 642 138 l 642 221 l 806 554 l 925 554 l 925 221 l 977 221 l 977 138 l 925 138 l 925 0 l 821 0 m 153 -12 l 732 1003 l 847 1003 l 268 -12 l 153 -12 m 21 595 l 125 595 l 125 589 q 137 539 125 557 q 174 522 150 522 q 215 543 201 522 q 229 603 229 564 q 211 666 229 647 q 150 685 193 685 q 143 684 148 685 q 136 684 138 684 l 136 775 l 143 775 q 215 791 193 775 q 237 844 237 807 q 225 889 237 873 q 191 905 212 905 q 154 889 166 905 q 142 842 142 873 l 142 836 l 41 836 l 41 848 q 81 959 41 921 q 196 997 121 997 q 304 959 267 997 q 342 847 342 920 q 318 767 342 797 q 249 732 294 737 l 249 725 q 333 682 305 715 q 361 595 361 650 q 312 473 361 517 q 179 428 264 428 q 61 468 103 428 q 20 581 20 508 q 20 587 20 583 q 21 595 21 591 z "},"₣":{"ha":940,"x_min":78,"x_max":930,"o":"m 78 0 l 78 990 l 505 990 l 505 807 l 269 807 l 269 602 l 485 602 l 485 419 l 269 419 l 269 0 l 78 0 m 610 0 l 610 665 l 781 665 l 781 547 q 840 645 803 612 q 930 677 878 677 l 930 503 l 918 503 q 820 468 846 503 q 793 313 793 434 l 793 0 l 610 0 z "},"Ğ":{"ha":772,"x_min":45,"x_max":728,"o":"m 358 559 l 726 559 q 727 537 726 552 q 728 514 728 522 q 636 127 728 266 q 385 -12 545 -12 q 136 124 228 -12 q 45 494 45 260 q 140 867 45 731 q 399 1003 235 1003 q 588 938 510 1003 q 701 749 665 873 l 524 667 q 480 777 512 741 q 395 814 448 814 q 278 737 315 814 q 241 494 241 660 q 280 255 241 336 q 395 174 319 174 q 497 229 460 174 q 534 385 534 284 l 358 385 l 358 559 m 203 1308 l 275 1308 q 306 1232 280 1255 q 386 1208 332 1208 q 467 1232 440 1208 q 497 1308 493 1255 l 569 1308 q 523 1154 569 1205 q 386 1103 477 1103 q 249 1154 296 1103 q 203 1304 203 1204 l 203 1308 z "},"ğ":{"ha":629,"x_min":41,"x_max":559,"o":"m 382 665 l 559 665 l 559 50 q 503 -235 559 -163 q 298 -307 446 -307 q 117 -247 182 -307 q 53 -77 53 -186 l 53 -66 l 208 -66 q 230 -139 208 -115 q 296 -163 252 -163 q 362 -138 343 -163 q 382 -50 382 -113 l 382 87 q 314 17 350 41 q 237 -7 277 -7 q 92 81 142 -7 q 41 334 41 168 q 93 584 41 496 q 239 672 144 672 q 319 645 283 672 q 382 564 355 618 l 382 665 m 382 343 q 363 482 382 440 q 300 524 344 524 q 242 481 260 524 q 224 342 224 438 q 244 199 224 246 q 304 151 264 151 q 364 195 346 151 q 382 343 382 239 m 132 983 l 204 983 q 236 907 210 930 q 315 884 262 884 q 396 907 370 884 q 427 983 422 930 l 498 983 q 453 829 498 880 q 315 778 407 778 q 179 829 225 778 q 132 979 132 880 l 132 983 z "},"İ":{"ha":375,"x_min":86,"x_max":288,"o":"m 86 0 l 86 990 l 288 990 l 288 0 l 86 0 m 100 1204 q 126 1265 100 1238 q 187 1293 153 1293 q 249 1266 222 1293 q 276 1204 276 1240 q 250 1142 276 1168 q 187 1116 224 1116 q 126 1142 152 1116 q 100 1204 100 1168 z "},"Ş":{"ha":533,"x_min":32,"x_max":503,"o":"m 47 35 l 47 240 q 121 191 85 208 q 193 175 157 175 q 272 201 243 175 q 301 273 301 228 q 223 395 301 330 q 191 424 201 414 q 66 570 100 505 q 32 717 32 635 q 104 924 32 845 q 293 1003 176 1003 q 375 991 334 1003 q 460 954 415 979 l 460 779 q 379 814 408 804 q 328 823 350 823 q 258 797 285 823 q 231 726 231 770 q 251 655 231 688 q 346 558 271 623 q 474 416 446 473 q 503 279 503 359 q 426 66 503 144 q 218 -12 350 -12 q 126 -1 168 -12 q 47 35 83 11 m 105 -297 l 105 -210 q 185 -231 149 -224 q 248 -239 222 -239 q 292 -226 277 -239 q 307 -189 307 -214 q 289 -153 307 -164 q 233 -142 271 -142 q 216 -142 222 -142 q 204 -143 210 -142 l 204 0 l 269 0 l 269 -61 l 277 -61 q 378 -94 345 -61 q 412 -191 412 -126 q 374 -292 412 -258 q 258 -326 335 -326 q 190 -319 229 -326 q 105 -297 151 -311 z "},"ş":{"ha":465,"x_min":18,"x_max":432,"o":"m 18 57 l 94 192 q 153 159 128 170 q 199 149 178 149 q 234 162 220 149 q 248 196 248 176 q 180 273 248 231 q 153 290 162 284 q 61 376 87 334 q 35 475 35 418 q 93 623 35 568 q 250 677 151 677 q 345 664 300 677 q 432 621 390 650 l 354 489 q 305 522 328 511 q 262 533 282 533 q 226 521 240 533 q 212 489 212 509 q 275 421 212 460 q 306 401 295 409 q 404 309 376 353 q 432 205 432 265 q 368 48 432 109 q 201 -12 304 -12 q 106 5 151 -12 q 18 57 60 22 m 72 -297 l 72 -210 q 152 -231 115 -224 q 215 -239 189 -239 q 259 -226 244 -239 q 273 -189 273 -214 q 256 -153 273 -164 q 200 -142 238 -142 q 183 -142 189 -142 q 171 -143 176 -142 l 171 0 l 236 0 l 236 -61 l 244 -61 q 345 -94 311 -61 q 379 -191 379 -126 q 340 -292 379 -258 q 225 -326 302 -326 q 157 -319 196 -326 q 72 -297 118 -311 z "},"Ć":{"ha":632,"x_min":46,"x_max":618,"o":"m 587 11 q 530 -6 559 -1 q 472 -12 501 -12 q 164 125 283 -12 q 46 486 46 263 q 162 861 46 718 q 464 1003 277 1003 q 529 997 498 1003 q 587 979 559 991 l 587 794 q 532 811 559 806 q 479 817 505 817 q 319 729 380 817 q 257 497 257 642 q 320 272 257 358 q 484 186 384 186 q 535 192 509 186 q 587 210 561 198 l 587 11 m 618 1332 l 416 1080 l 325 1080 l 452 1332 l 618 1332 z "},"ć":{"ha":441,"x_min":36,"x_max":481,"o":"m 416 476 q 374 500 395 492 q 334 507 354 507 q 250 461 281 507 q 218 338 218 416 q 250 211 218 256 q 339 167 281 167 q 380 175 361 167 q 416 201 399 184 l 416 26 q 356 -3 388 7 q 290 -12 325 -12 q 105 81 174 -12 q 36 334 36 174 q 105 585 36 492 q 290 677 174 677 q 355 671 323 677 q 416 652 386 665 l 416 476 m 481 1007 l 278 755 l 187 755 l 314 1007 l 481 1007 z "},"Č":{"ha":632,"x_min":46,"x_max":608,"o":"m 587 11 q 530 -6 559 -1 q 472 -12 501 -12 q 164 125 283 -12 q 46 486 46 263 q 162 861 46 718 q 464 1003 277 1003 q 529 997 498 1003 q 587 979 559 991 l 587 794 q 532 811 559 806 q 479 817 505 817 q 319 729 380 817 q 257 497 257 642 q 320 272 257 358 q 484 186 384 186 q 535 192 509 186 q 587 210 561 198 l 587 11 m 245 1332 l 327 1332 l 427 1183 l 526 1332 l 608 1332 l 494 1080 l 359 1080 l 245 1332 z "},"č":{"ha":441,"x_min":36,"x_max":471,"o":"m 416 476 q 374 500 395 492 q 334 507 354 507 q 250 461 281 507 q 218 338 218 416 q 250 211 218 256 q 339 167 281 167 q 380 175 361 167 q 416 201 399 184 l 416 26 q 356 -3 388 7 q 290 -12 325 -12 q 105 81 174 -12 q 36 334 36 174 q 105 585 36 492 q 290 677 174 677 q 355 671 323 677 q 416 652 386 665 l 416 476 m 107 1007 l 189 1007 l 289 859 l 389 1007 l 471 1007 l 357 755 l 221 755 l 107 1007 z "},"đ":{"ha":635,"x_min":41,"x_max":644,"o":"m 382 571 l 382 777 l 240 777 l 240 899 l 382 899 l 382 1051 l 559 1051 l 559 899 l 644 899 l 644 777 l 559 777 l 559 0 l 382 0 l 382 97 q 319 14 356 41 q 233 -14 282 -14 q 92 76 142 -14 q 41 332 41 166 q 93 583 41 494 q 239 672 145 672 q 317 647 282 672 q 382 571 353 623 m 382 343 q 362 481 382 439 q 300 524 343 524 q 242 480 260 524 q 224 342 224 437 q 244 199 224 246 q 304 151 264 151 q 364 195 346 151 q 382 343 382 239 z "},"­":{"ha":453,"x_min":52,"x_max":401,"o":"m 52 225 l 52 440 l 401 440 l 401 225 l 52 225 z "},"∙":{"ha":306,"x_min":33,"x_max":272,"o":"m 272 494 q 238 409 272 444 q 153 375 203 375 q 67 409 102 375 q 33 494 33 443 q 68 579 33 545 q 153 614 102 614 q 237 579 203 614 q 272 494 272 545 z "}}}
